<?xml version="1.0" standalone="no"?>
<!DOCTYPE svg PUBLIC "-//W3C//DTD SVG 20010904//EN"
 "http://www.w3.org/TR/2001/REC-SVG-20010904/DTD/svg10.dtd">
<svg version="1.0" xmlns="http://www.w3.org/2000/svg"
 width="668.000000pt" height="672.000000pt" viewBox="0 0 668.000000 672.000000"
 preserveAspectRatio="xMidYMid meet">
<metadata>
Created by potrace 1.16, written by Peter Selinger 2001-2019
</metadata>
<g transform="translate(0.000000,672.000000) scale(0.100000,-0.100000)"
fill="#000000" stroke="none">
<path d="M1720 6235 c-192 -41 -331 -134 -399 -268 -85 -167 -50 -390 88 -565
22 -28 136 -133 253 -233 301 -258 406 -357 515 -483 161 -187 282 -387 352
-582 49 -134 64 -215 65 -349 1 -185 -32 -302 -155 -548 -161 -320 -580 -993
-1038 -1666 -164 -240 -230 -385 -250 -549 -29 -229 55 -397 244 -488 170 -81
400 -80 541 2 94 55 189 188 240 335 54 161 81 288 124 603 46 324 94 497 197
699 120 235 274 393 486 497 125 61 241 95 412 121 425 63 884 47 1600 -56
601 -87 907 -54 1076 114 81 82 103 143 103 291 1 310 -139 501 -387 529 -166
19 -329 -16 -640 -138 -259 -101 -422 -153 -583 -188 -111 -23 -153 -27 -304
-27 -152 -1 -186 2 -260 22 -243 66 -518 276 -680 519 -129 193 -676 1323
-897 1853 -140 338 -245 479 -402 540 -71 28 -209 35 -301 15z"/>
</g>
</svg>
