<?xml version="1.0" standalone="no"?>
<!DOCTYPE svg PUBLIC "-//W3C//DTD SVG 20010904//EN"
 "http://www.w3.org/TR/2001/REC-SVG-20010904/DTD/svg10.dtd">
<svg version="1.0" xmlns="http://www.w3.org/2000/svg"
 width="216.000000pt" height="230.000000pt" viewBox="0 0 216.000000 230.000000"
 preserveAspectRatio="xMidYMid meet">
<metadata>
Created by potrace 1.16, written by Peter Selinger 2001-2019
</metadata>
<g transform="translate(0.000000,230.000000) scale(0.100000,-0.100000)"
fill="#000000" stroke="none">
<path d="M920 1835 c-310 -34 -566 -97 -608 -148 -24 -28 -25 -71 -3 -99 37
-47 90 -52 351 -33 130 10 296 15 378 13 135 -3 152 -6 207 -31 114 -53 174
-142 195 -288 11 -76 10 -104 -16 -481 -12 -167 -13 -226 -4 -260 29 -106 111
-119 169 -25 45 73 114 460 132 739 27 422 -33 566 -260 614 -83 17 -379 17
-541 -1z m510 -16 c89 -14 167 -54 206 -106 55 -71 67 -156 61 -401 -3 -114
-11 -246 -17 -294 l-13 -88 -57 0 c-31 0 -78 3 -104 6 l-47 7 7 126 c12 223
-21 338 -122 430 -86 79 -154 96 -365 94 l-166 -1 -7 60 c-3 34 -6 80 -6 103
l0 43 118 12 c64 6 124 13 132 15 40 8 323 4 380 -6z m-900 -133 c0 -29 3 -68
6 -85 l7 -31 -84 0 c-101 0 -133 13 -137 56 -4 39 38 78 101 94 23 6 47 13 52
15 6 2 20 4 33 4 20 1 22 -3 22 -53z m1077 -1031 c15 -5 0 -72 -32 -143 -37
-82 -99 -92 -124 -21 -11 31 -16 161 -6 170 5 5 143 0 162 -6z"/>
</g>
</svg>
