<?xml version="1.0" standalone="no"?>
<!DOCTYPE svg PUBLIC "-//W3C//DTD SVG 20010904//EN"
 "http://www.w3.org/TR/2001/REC-SVG-20010904/DTD/svg10.dtd">
<svg version="1.0" xmlns="http://www.w3.org/2000/svg"
 width="228.000000pt" height="196.000000pt" viewBox="0 0 228.000000 196.000000"
 preserveAspectRatio="xMidYMid meet">
<metadata>
Created by potrace 1.16, written by Peter Selinger 2001-2019
</metadata>
<g transform="translate(0.000000,196.000000) scale(0.100000,-0.100000)"
fill="#000000" stroke="none">
<path d="M1025 1654 c-186 -39 -372 -185 -454 -355 -55 -115 -74 -207 -68
-334 12 -278 187 -511 457 -607 57 -20 84 -23 210 -23 166 0 220 14 344 87
299 176 411 560 255 874 -136 275 -441 421 -744 358z m335 -50 c224 -70 389
-258 436 -493 45 -228 -49 -472 -236 -616 -189 -146 -444 -175 -656 -76 -396
185 -496 698 -196 1012 175 184 415 248 652 173z"/>
<path d="M1133 1160 c-79 -18 -143 -109 -129 -183 8 -42 41 -93 79 -121 21
-16 43 -21 87 -21 65 0 99 18 137 75 34 49 39 95 17 148 -32 76 -114 119 -191
102z m92 -44 c44 -19 75 -69 75 -123 0 -80 -86 -144 -164 -122 -19 5 -48 25
-65 45 -52 59 -37 152 32 194 38 24 75 25 122 6z"/>
</g>
</svg>
