<svg xmlns="http://www.w3.org/2000/svg" xmlns:xlink="http://www.w3.org/1999/xlink" version="1.1" x="0px" y="0px" viewBox="-250.258 143.75 48.01 60.026250000000005" style="enable-background:new -250.258 143.75 48.01 48.021;" xml:space="preserve"><g><path d="M-205.452,155.797c-0.005-0.012-0.006-0.026-0.013-0.038c-0.008-0.013-0.02-0.021-0.03-0.034   c-0.011-0.016-0.023-0.034-0.034-0.045c-4.15-7.13-11.89-11.93-20.72-11.93c-8.84,0-16.58,4.8-20.73,11.93   c-0.01,0.01-0.02,0.026-0.029,0.039c-0.011,0.014-0.026,0.024-0.035,0.04c-0.006,0.01-0.006,0.021-0.01,0.031   c-0.013,0.024-0.028,0.049-0.035,0.07c-2.02,3.51-3.17,7.57-3.17,11.9c0,4.33,1.15,8.39,3.17,11.9   c0.006,0.019,0.02,0.042,0.032,0.065c0.006,0.013,0.006,0.027,0.013,0.039c0.007,0.012,0.021,0.017,0.029,0.029   c0.011,0.017,0.018,0.036,0.036,0.048c4.15,7.13,11.89,11.93,20.73,11.93c8.83,0,16.57-4.8,20.72-11.93   c0.007-0.007,0.014-0.019,0.021-0.028c0.014-0.017,0.032-0.029,0.043-0.049c0.009-0.016,0.01-0.033,0.016-0.049   c0.008-0.015,0.02-0.03,0.02-0.045c2.03-3.51,3.18-7.58,3.18-11.91s-1.15-8.4-3.18-11.91   C-205.428,155.832-205.442,155.814-205.452,155.797z M-206.308,155.81c0,0.001,0.001,0.001,0.001,0.002l-4.998,2.886   c-0.136,0.079-0.208,0.233-0.181,0.388c0.026,0.154,0.146,0.276,0.3,0.307c0.052,0.01,1.292,0.263,1.773,1.69   c0.356,1.048-0.303,2.007-0.862,2.327c-0.488,0.283-1.958,0.799-2.881-0.209c-1.119-1.226-0.812-2.172-0.8-2.207   c0.055-0.148,0.011-0.315-0.109-0.417c-0.121-0.103-0.294-0.117-0.43-0.039l-4.314,2.491c-1.5-2.369-4.099-3.969-7.069-4.089   v-4.255c0.494,0.239,1.275,0.43,2.387,0.184c1.748-0.385,2.209-2.212,2.209-3.125c0-0.916-0.68-2.342-2.192-2.644   c-1.069-0.208-1.885,0.088-2.405,0.405v-4.995C-217.578,144.63-210.318,149.14-206.308,155.81z M-219.258,171.8   c-1.4,2.41-4.01,4.04-6.99,4.04c-2.95,0-5.54-1.59-6.96-3.95c-0.01-0.03-0.02-0.06-0.04-0.09c0-0.01-0.01-0.01-0.01-0.02   c-0.69-1.18-1.08-2.56-1.08-4.02s0.39-2.84,1.08-4.02c0-0.01,0.01-0.01,0.01-0.02c0.02-0.03,0.03-0.06,0.04-0.09   c1.42-2.36,4.01-3.95,6.96-3.95c2.98,0,5.59,1.63,6.99,4.04c0.68,1.19,1.08,2.57,1.08,4.04   C-218.178,169.23-218.578,170.61-219.258,171.8z M-226.628,144.51L-226.628,144.51l0.001,5.776c0,0.157,0.098,0.298,0.246,0.353   c0.147,0.05,0.314,0.009,0.416-0.11c0.008-0.01,0.854-0.991,2.347-0.692c1.083,0.216,1.588,1.266,1.588,1.907   c0,0.566-0.291,2.1-1.621,2.393c-1.624,0.356-2.287-0.382-2.312-0.41c-0.101-0.122-0.267-0.168-0.416-0.115   c-0.149,0.054-0.249,0.195-0.249,0.354v4.976l0,0c-2.968,0.13-5.567,1.728-7.077,4.086l-3.687-2.127   c0.454-0.309,1.01-0.89,1.354-1.978c0.542-1.703-0.811-3.02-1.601-3.478c-0.792-0.459-2.366-0.585-3.387,0.578   c-0.721,0.819-0.868,1.676-0.853,2.286l-4.321-2.495l0.001-0.002C-242.188,149.14-234.928,144.64-226.628,144.51z M-246.579,156.46   l5.003,2.888c0.135,0.077,0.305,0.062,0.426-0.037c0.121-0.101,0.166-0.266,0.115-0.414c-0.018-0.051-0.421-1.25,0.572-2.382   c0.731-0.833,1.893-0.745,2.447-0.424c0.491,0.284,1.675,1.307,1.263,2.603c-0.501,1.583-1.477,1.792-1.513,1.799   c-0.156,0.026-0.278,0.148-0.307,0.304c-0.028,0.155,0.045,0.312,0.182,0.392l4.314,2.489c0,0.001-0.001,0.001-0.001,0.002   c-0.65,1.22-1.01,2.61-1.01,4.08s0.36,2.86,1.01,4.08c0.001,0.001,0.002,0.003,0.002,0.004l-3.693,2.131   c-0.04-0.547-0.267-1.318-1.035-2.159c-1.205-1.32-3.021-0.808-3.813-0.352c-0.79,0.458-1.682,1.76-1.19,3.218   c0.351,1.035,1.018,1.591,1.553,1.883l-4.324,2.497c0,0-0.001-0.001-0.001-0.002c-1.86-3.35-2.93-7.2-2.93-11.3   C-249.508,163.66-248.438,159.81-246.579,156.46z M-246.198,179.71L-246.198,179.71l4.997-2.887   c0.137-0.079,0.209-0.235,0.182-0.39s-0.148-0.277-0.304-0.305c-0.013-0.002-1.284-0.244-1.773-1.688   c-0.353-1.045,0.303-2.008,0.855-2.328c0.491-0.282,1.967-0.798,2.884,0.208c1.12,1.226,0.814,2.171,0.802,2.206   c-0.055,0.148-0.011,0.315,0.109,0.417c0.121,0.103,0.292,0.116,0.43,0.039l4.312-2.487c1.511,2.357,4.108,3.954,7.076,4.084   c0,0,0,0,0.001,0v4.26c-0.494-0.24-1.277-0.432-2.389-0.187c-1.749,0.385-2.21,2.214-2.21,3.127c0,0.914,0.679,2.339,2.188,2.641   c1.074,0.22,1.891-0.084,2.411-0.402v4.991l0,0C-234.928,190.88-242.188,186.38-246.198,179.71z M-225.878,191.01v-5.773   c0-0.156-0.098-0.296-0.245-0.351c-0.148-0.054-0.313-0.012-0.415,0.107c-0.035,0.041-0.87,0.999-2.354,0.691   c-1.082-0.217-1.585-1.265-1.585-1.905c0-0.566,0.292-2.102,1.621-2.395c1.62-0.355,2.29,0.383,2.314,0.411   c0.101,0.122,0.268,0.17,0.416,0.113c0.148-0.054,0.248-0.194,0.248-0.353v-4.978c2.969-0.12,5.567-1.719,7.068-4.087l3.694,2.131   c-0.454,0.309-1.009,0.892-1.355,1.979c-0.499,1.588,0.686,2.947,1.603,3.473c0.338,0.196,0.819,0.331,1.338,0.331   c0.696,0,1.461-0.242,2.045-0.905c0.721-0.821,0.87-1.679,0.855-2.289l4.321,2.497l0,0   C-210.318,186.38-217.578,190.89-225.878,191.01z M-205.928,179.06c0,0.001-0.001,0.001-0.001,0.002l-5.001-2.888   c-0.135-0.079-0.307-0.063-0.428,0.036c-0.121,0.102-0.166,0.267-0.113,0.415c0.004,0.012,0.428,1.237-0.577,2.382   c-0.732,0.829-1.892,0.741-2.446,0.42c-0.49-0.281-1.672-1.295-1.262-2.598c0.503-1.584,1.475-1.794,1.512-1.801   c0.156-0.027,0.278-0.148,0.306-0.304s-0.045-0.312-0.182-0.392l-4.319-2.493l0,0c0.65-1.22,1.01-2.61,1.01-4.08   c0-1.469-0.36-2.859-1.009-4.078l3.695-2.134c0.04,0.547,0.266,1.318,1.034,2.159c0.564,0.616,1.29,0.837,1.988,0.837   c0.696,0,1.365-0.219,1.821-0.484c0.797-0.455,1.695-1.755,1.198-3.218c-0.349-1.035-1.017-1.592-1.552-1.884l4.318-2.494   c1.868,3.349,2.938,7.197,2.938,11.295C-202.998,171.86-204.068,175.71-205.928,179.06z"/></g><text x="-250.258" y="206.77100000000002" fill="#000000" font-size="5px" font-weight="bold" font-family="'Helvetica Neue', Helvetica, Arial-Unicode, Arial, Sans-serif">Created by Xela Ub</text><text x="-250.258" y="211.77100000000002" fill="#000000" font-size="5px" font-weight="bold" font-family="'Helvetica Neue', Helvetica, Arial-Unicode, Arial, Sans-serif">from the Noun Project</text></svg>