<svg xmlns="http://www.w3.org/2000/svg" xmlns:xlink="http://www.w3.org/1999/xlink" version="1.1" x="0px" y="0px" viewBox="0 0 100 125" style="enable-background:new 0 0 100 100;" xml:space="preserve"><g><path d="M16.5,74.3C16.5,74.3,16.5,74.3,16.5,74.3C16.9,83,33.6,87.6,50,87.6S83.1,83,83.5,74.3c0,0,0,0,0,0c0-0.1,0-0.2,0-0.3   c0-0.1,0-0.1,0-0.2c0,0,0-0.1,0-0.1c-0.1-1.9-1-3.7-2.5-5.2L52.7,14c0,0,0,0,0,0c-0.1-0.1-0.1-0.2-0.2-0.4c0,0-0.1-0.1-0.1-0.1   c-0.1-0.1-0.1-0.1-0.2-0.2c-0.1-0.1-0.1-0.2-0.2-0.2c0,0-0.1-0.1-0.1-0.1c-0.1-0.1-0.2-0.2-0.4-0.2c0,0,0,0,0,0   c-0.1,0-0.1,0-0.2-0.1c-0.1-0.1-0.2-0.1-0.4-0.1c-0.1,0-0.2,0-0.2,0c-0.1,0-0.2-0.1-0.3-0.1c-0.1,0-0.2,0-0.2,0c-0.1,0-0.2,0-0.4,0   c-0.1,0-0.1,0-0.2,0c-0.1,0-0.2,0-0.3,0.1c-0.1,0-0.2,0.1-0.3,0.1c-0.1,0-0.2,0.1-0.3,0.1c0,0,0,0,0,0c-0.1,0.1-0.2,0.1-0.3,0.2   c-0.1,0-0.1,0.1-0.2,0.1c-0.1,0-0.1,0.1-0.2,0.2c-0.1,0.1-0.2,0.2-0.3,0.3c0,0-0.1,0.1-0.1,0.1c-0.1,0.1-0.2,0.2-0.2,0.4   c0,0,0,0,0,0L19,68.5c-1.5,1.5-2.4,3.3-2.5,5.2c0,0,0,0.1,0,0.1c0,0.1,0,0.1,0,0.2C16.5,74.1,16.5,74.2,16.5,74.3z M50,81.6   c-16,0-26.2-4.3-27.4-7.1l1.3-2.5c3.4-2.6,12.7-5.6,26.1-5.6s22.7,3,26.1,5.6l1.3,2.5C76.2,77.2,66,81.6,50,81.6z M50,21.9   l21.6,41.4c-6.1-2-13.9-3-21.6-3s-15.5,1-21.6,3L50,21.9z"/></g><text x="0" y="115" fill="#000000" font-size="5px" font-weight="bold" font-family="'Helvetica Neue', Helvetica, Arial-Unicode, Arial, Sans-serif">Created by Gagana</text><text x="0" y="120" fill="#000000" font-size="5px" font-weight="bold" font-family="'Helvetica Neue', Helvetica, Arial-Unicode, Arial, Sans-serif">from the Noun Project</text></svg>