<?xml version="1.0" standalone="no"?>
<!DOCTYPE svg PUBLIC "-//W3C//DTD SVG 20010904//EN"
 "http://www.w3.org/TR/2001/REC-SVG-20010904/DTD/svg10.dtd">
<svg version="1.0" xmlns="http://www.w3.org/2000/svg"
 width="202.000000pt" height="198.000000pt" viewBox="0 0 202.000000 198.000000"
 preserveAspectRatio="xMidYMid meet">

<g transform="translate(0.000000,198.000000) scale(0.100000,-0.100000)"
fill="#000000" stroke="none">
<path d="M851 1714 c-106 -38 -120 -78 -38 -105 69 -23 73 -30 42 -75 -15 -22
-29 -51 -32 -66 -4 -19 -13 -29 -33 -33 -50 -11 -116 -62 -135 -105 -15 -34
-16 -46 -7 -79 10 -31 9 -44 -3 -67 -22 -42 -19 -59 18 -100 27 -31 56 -108
182 -483 144 -429 151 -446 175 -446 24 0 31 17 175 447 93 278 158 455 171
470 38 41 45 64 38 125 -7 66 -24 99 -60 115 -19 9 -24 19 -24 50 0 44 -18 84
-50 113 -12 11 -29 33 -38 50 -28 54 -130 152 -184 175 -68 29 -142 34 -197
14z m152 -68 c52 -19 104 -61 141 -114 17 -25 45 -63 61 -85 48 -64 55 -79 44
-98 -14 -27 -140 -84 -269 -123 -225 -67 -228 -79 -9 -35 111 22 169 39 207
60 49 27 56 29 92 18 51 -15 77 -43 61 -63 -15 -18 -95 -52 -167 -71 -65 -17
-428 -22 -453 -6 -14 9 -11 22 11 53 10 14 10 25 -1 53 -11 31 -10 39 6 67 34
59 107 83 316 104 56 5 81 24 33 24 -14 0 -37 5 -53 11 -15 6 -51 13 -80 17
l-53 7 30 45 c36 55 38 83 5 116 -14 14 -25 27 -25 29 0 10 66 4 103 -9z"/>
</g>
</svg>
