<svg xmlns="http://www.w3.org/2000/svg" xmlns:xlink="http://www.w3.org/1999/xlink" version="1.1" x="0px" y="0px" viewBox="0 0 95 118.75" enable-background="new 0 0 95 95" xml:space="preserve"><path d="M50.652,82.735h-6.305c-1.485,0-2.702-1.217-2.702-2.702V38.044H28.981c-1.486,0-2.701-1.216-2.701-2.702v-6.304  c0-1.486,1.215-2.702,2.701-2.702h12.664V14.967c0-1.486,1.217-2.702,2.702-2.702h6.305c1.485,0,2.701,1.216,2.701,2.702v11.369  h12.664c1.486,0,2.702,1.216,2.702,2.702v6.304c0,1.486-1.216,2.702-2.702,2.702H53.354v41.989  C53.354,81.519,52.138,82.735,50.652,82.735z"/><text x="0" y="110" fill="#000000" font-size="5px" font-weight="bold" font-family="'Helvetica Neue', Helvetica, Arial-Unicode, Arial, Sans-serif">Created by Guilherme Furtado</text><text x="0" y="115" fill="#000000" font-size="5px" font-weight="bold" font-family="'Helvetica Neue', Helvetica, Arial-Unicode, Arial, Sans-serif">from the Noun Project</text></svg>