<svg xmlns="http://www.w3.org/2000/svg" xmlns:xlink="http://www.w3.org/1999/xlink" version="1.1" x="0px" y="0px" viewBox="0 0 100 125" enable-background="new 0 0 100 100" xml:space="preserve"><path d="M71.5,20.5C70.1,9.9,61,1.6,50,1.6c-11,0-20.1,8.3-21.5,18.9c-15.6,2.3-26.2,7-26.2,12.4c0,5.8,12.2,10.7,29.5,12.8l2.5-8.5  c0.5-1.6,1.8-2.9,3.5-3.4c4-1.1,8.1-1.6,12.3-1.6s8.3,0.6,12.3,1.6c1.7,0.5,3,1.7,3.5,3.4l2.5,8.5c17.3-2.1,29.5-7,29.5-12.8  C97.7,27.5,87.1,22.8,71.5,20.5z M50,19c-4.8,0-9.4,0.2-13.8,0.6C37.9,13.5,43.4,9,50,9s12.1,4.5,13.8,10.6C59.4,19.2,54.8,19,50,19  z M61,38.5l15.3,51.6v0c-7.9,5.5-17.1,8.3-26.2,8.3s-18.4-2.8-26.2-8.3v0L39,38.5h0c3.6-1,7.3-1.5,11-1.5S57.4,37.6,61,38.5L61,38.5  z"/><text x="0" y="115" fill="#000000" font-size="5px" font-weight="bold" font-family="'Helvetica Neue', Helvetica, Arial-Unicode, Arial, Sans-serif">Created by Gregor Cresnar</text><text x="0" y="120" fill="#000000" font-size="5px" font-weight="bold" font-family="'Helvetica Neue', Helvetica, Arial-Unicode, Arial, Sans-serif">from the Noun Project</text></svg>