<svg xmlns="http://www.w3.org/2000/svg" data-name="Layer 1" viewBox="0 0 100 125" x="0px" y="0px"><title>Artboard 7</title><path d="M50,81A27,27,0,0,0,77,54c0-14.09-11.34-35-27-35S23,39.91,23,54A27,27,0,0,0,50,81Zm0-56c11.59,0,21,17.55,21,29a21,21,0,0,1-42,0C29,42.55,38.41,25,50,25Z"/><path d="M50,67A13,13,0,1,0,37,54,13,13,0,0,0,50,67Zm0-20a7,7,0,1,1-7,7A7,7,0,0,1,50,47Z"/><text x="0" y="115" fill="#000000" font-size="5px" font-weight="bold" font-family="'Helvetica Neue', Helvetica, Arial-Unicode, Arial, Sans-serif">Created by Gregor Cresnar</text><text x="0" y="120" fill="#000000" font-size="5px" font-weight="bold" font-family="'Helvetica Neue', Helvetica, Arial-Unicode, Arial, Sans-serif">from the Noun Project</text></svg>