<?xml version="1.0" standalone="no"?>
<!DOCTYPE svg PUBLIC "-//W3C//DTD SVG 20010904//EN"
 "http://www.w3.org/TR/2001/REC-SVG-20010904/DTD/svg10.dtd">
<svg version="1.0" xmlns="http://www.w3.org/2000/svg"
 width="244.000000pt" height="212.000000pt" viewBox="0 0 244.000000 212.000000"
 preserveAspectRatio="xMidYMid meet">
<metadata>
Created by potrace 1.16, written by Peter Selinger 2001-2019
</metadata>
<g transform="translate(0.000000,212.000000) scale(0.100000,-0.100000)"
fill="#000000" stroke="none">
<path d="M1925 1846 c-169 -33 -268 -102 -280 -192 -10 -82 -24 -122 -51 -143
-23 -18 -35 -19 -128 -14 -120 7 -143 3 -187 -34 -29 -25 -99 -151 -99 -179 0
-6 -18 -31 -39 -55 -33 -37 -42 -42 -58 -33 -30 18 -26 50 12 105 26 37 35 61
33 83 -4 41 -23 43 -38 5 -11 -26 -29 -39 -94 -69 -91 -42 -105 -56 -130 -120
-22 -57 -33 -69 -129 -142 -43 -33 -92 -78 -108 -101 -119 -164 -42 -439 142
-503 83 -29 247 -27 314 4 102 47 143 105 222 315 25 67 52 126 62 132 9 5 54
25 101 43 95 37 151 83 181 147 36 78 16 133 -27 77 -31 -40 -105 -82 -143
-82 -60 0 -78 93 -30 154 28 35 66 54 177 87 110 32 168 69 180 113 5 17 5 60
1 96 -12 93 -3 135 37 175 40 40 148 102 192 111 18 4 32 13 32 20 0 17 -59
17 -145 0z m-865 -715 c0 -5 -12 -30 -27 -56 l-26 -48 29 7 c16 4 64 25 108
47 43 22 80 38 83 36 2 -3 -16 -46 -41 -95 -38 -76 -86 -187 -86 -200 0 -2 17
10 39 27 51 41 90 55 97 37 16 -41 -64 -211 -130 -278 -64 -65 -114 -83 -227
-83 -87 0 -99 2 -136 27 -63 42 -88 102 -88 213 0 81 3 95 29 143 45 81 165
169 296 218 41 15 80 18 80 5z"/>
<path d="M820 923 c-23 -8 -80 -65 -96 -95 -23 -44 -17 -99 15 -149 50 -79
132 -99 227 -55 28 13 60 36 72 51 43 55 19 184 -43 233 -22 18 -40 22 -94 21
-36 0 -73 -3 -81 -6z"/>
</g>
</svg>
