<svg xmlns="http://www.w3.org/2000/svg" xmlns:xlink="http://www.w3.org/1999/xlink" version="1.1" x="0px" y="0px" viewBox="0 0 100 125" enable-background="new 0 0 100 100" xml:space="preserve"><path d="M69.025,53.315c0.212,0.037,0.417,0,0.577-0.092c0.164-0.091,0.274-0.239,0.293-0.419c0.044-0.36-0.264-0.686-0.692-0.729  c-0.214-0.023-0.925-0.027-1.585,0.001c-0.661,0.03-1.27,0.086-1.288,0.232c-0.014,0.146,0.558,0.367,1.177,0.574  C68.131,53.089,68.813,53.278,69.025,53.315z"/><path d="M74.038,54.006c0.331,0.056,0.661-0.177,0.698-0.527c0.044-0.349-0.192-0.661-0.527-0.698  c-0.336-0.032-2.229,0.011-2.266,0.309C71.913,53.389,73.704,53.944,74.038,54.006z"/><path d="M84.221,55.366c0.216,0.034,0.424-0.19,0.463-0.501c0.04-0.311-0.101-0.584-0.315-0.61c-0.214-0.024-1.43,0.071-1.467,0.362  C82.865,54.907,84.011,55.331,84.221,55.366z"/><path d="M89.348,56.024c0.167,0.026,0.332-0.179,0.369-0.458c0.036-0.279-0.071-0.522-0.238-0.543  c-0.168-0.02-1.124,0.082-1.158,0.348C88.286,55.637,89.182,55.997,89.348,56.024z"/><path d="M79.221,54.835c0.319,0.054,0.646-0.228,0.691-0.635c0.052-0.406-0.169-0.764-0.492-0.8c-0.324-0.031-2.155,0.066-2.2,0.425  C77.181,54.185,78.9,54.776,79.221,54.835z"/><path d="M94.38,56.456c0.07,0.01,0.141-0.088,0.158-0.219c0.017-0.131-0.026-0.245-0.096-0.254c-0.07-0.009-0.473,0.044-0.49,0.172  C93.936,56.284,94.31,56.445,94.38,56.456z"/><path d="M63.956,52.507c0.242,0.043,0.472,0.023,0.649-0.048c0.18-0.07,0.303-0.193,0.317-0.347c0.036-0.31-0.323-0.598-0.813-0.644  c-0.245-0.025-1.055-0.047-1.805-0.049c-0.751,0.001-1.441,0.016-1.453,0.126c-0.007,0.111,0.648,0.313,1.363,0.517  C62.931,52.264,63.714,52.464,63.956,52.507z"/><path d="M68.385,55.934c0.205,0.066,0.414,0.059,0.587-0.009c0.166-0.07,0.293-0.202,0.342-0.374c0.1-0.347-0.159-0.712-0.583-0.816  c-0.211-0.053-0.903-0.154-1.565-0.22c-0.66-0.064-1.273-0.094-1.313,0.046c-0.04,0.14,0.498,0.439,1.092,0.734  C67.532,55.585,68.18,55.868,68.385,55.934z"/><path d="M73.253,57.321c0.327,0.104,0.662-0.088,0.758-0.426c0.096-0.338-0.091-0.679-0.418-0.762  c-0.328-0.078-2.212-0.302-2.293-0.014C71.219,56.407,72.938,57.215,73.253,57.321z"/><path d="M83.138,60.092c0.206,0.063,0.443-0.13,0.529-0.433c0.086-0.302-0.014-0.592-0.222-0.648  c-0.209-0.053-1.428-0.13-1.508,0.152C81.857,59.446,82.933,60.026,83.138,60.092z"/><path d="M88.12,61.46c0.161,0.049,0.356-0.131,0.433-0.402c0.077-0.271,0.007-0.527-0.156-0.571  c-0.163-0.043-1.126-0.076-1.199,0.183C87.124,60.928,87.959,61.41,88.12,61.46z"/><path d="M78.269,58.867c0.315,0.1,0.654-0.14,0.767-0.534c0.112-0.394-0.053-0.779-0.369-0.859  c-0.316-0.076-2.146-0.236-2.245,0.111C76.323,57.933,77.965,58.766,78.269,58.867z"/><path d="M93.044,62.592c0.068,0.02,0.153-0.067,0.189-0.195c0.036-0.127,0.01-0.246-0.058-0.265  c-0.068-0.019-0.475-0.023-0.511,0.103C92.629,62.359,92.977,62.571,93.044,62.592z"/><path d="M63.478,54.423c0.234,0.077,0.465,0.09,0.652,0.045c0.187-0.044,0.312-0.152,0.356-0.299  c0.042-0.148-0.015-0.307-0.142-0.442c-0.134-0.137-0.339-0.248-0.577-0.307c-0.239-0.059-1.032-0.193-1.77-0.299  c-0.745-0.105-1.433-0.189-1.463-0.084c-0.032,0.104,0.604,0.4,1.284,0.702C62.498,54.04,63.244,54.346,63.478,54.423z"/><path d="M67.384,58.437c0.393,0.193,0.82,0.077,0.97-0.251c0.157-0.326-0.066-0.731-0.466-0.891  c-0.199-0.081-0.878-0.281-1.515-0.436c-0.636-0.152-1.248-0.272-1.306-0.138c-0.061,0.133,0.428,0.504,0.974,0.879  C66.589,57.973,67.191,58.344,67.384,58.437z"/><path d="M72.006,60.491c0.304,0.147,0.667,0.005,0.812-0.315c0.149-0.319,0.006-0.685-0.31-0.815  c-0.156-0.065-0.69-0.211-1.201-0.313c-0.514-0.102-1.001-0.161-1.065-0.021C70.118,59.301,71.704,60.34,72.006,60.491z"/><path d="M81.403,64.619c0.195,0.091,0.459-0.066,0.588-0.352c0.129-0.286,0.072-0.587-0.126-0.671  c-0.199-0.082-1.397-0.329-1.518-0.062C80.227,63.8,81.209,64.526,81.403,64.619z"/><path d="M86.145,66.672c0.153,0.071,0.372-0.079,0.487-0.336c0.116-0.257,0.083-0.519-0.072-0.586  c-0.156-0.065-1.105-0.234-1.215,0.011C85.235,66.007,85.993,66.6,86.145,66.672z"/><path d="M76.754,62.725c0.293,0.141,0.668-0.047,0.837-0.42c0.171-0.372,0.058-0.778-0.247-0.903  c-0.151-0.063-0.669-0.191-1.173-0.268c-0.505-0.077-0.987-0.104-1.064,0.064C74.959,61.527,76.463,62.58,76.754,62.725z"/><path d="M90.863,68.484c0.064,0.029,0.161-0.045,0.215-0.166c0.054-0.121,0.046-0.242-0.019-0.27  c-0.065-0.028-0.467-0.089-0.521,0.029S90.799,68.454,90.863,68.484z"/><path d="M62.736,56.254c0.219,0.108,0.453,0.156,0.637,0.134c0.184-0.021,0.331-0.107,0.395-0.247  c0.138-0.279-0.154-0.664-0.609-0.844c-0.228-0.092-0.997-0.337-1.712-0.545c-0.711-0.204-1.389-0.386-1.433-0.286  c-0.046,0.099,0.534,0.478,1.172,0.876C61.824,55.739,62.513,56.144,62.736,56.254z"/><path d="M66.036,60.781c0.356,0.242,0.801,0.19,0.998-0.114c0.205-0.3,0.029-0.739-0.339-0.95c-0.186-0.108-0.831-0.402-1.441-0.644  c-0.608-0.239-1.189-0.437-1.271-0.316c-0.08,0.123,0.351,0.558,0.838,1.005C65.31,60.207,65.857,60.661,66.036,60.781z"/><path d="M70.325,63.457c0.281,0.188,0.661,0.099,0.852-0.197c0.196-0.292,0.094-0.683-0.196-0.852  c-0.295-0.167-2.025-0.893-2.194-0.644C68.623,62.016,70.047,63.265,70.325,63.457z"/><path d="M79.056,68.855c0.18,0.118,0.464-0.001,0.633-0.265c0.17-0.264,0.154-0.569-0.033-0.682  c-0.183-0.108-1.334-0.519-1.493-0.273C78.006,67.882,78.877,68.736,79.056,68.855z"/><path d="M83.466,71.55c0.142,0.092,0.38-0.026,0.531-0.263c0.151-0.237,0.155-0.501,0.011-0.588  c-0.145-0.086-1.062-0.386-1.206-0.16C82.657,70.765,83.325,71.458,83.466,71.55z"/><path d="M74.716,66.331c0.271,0.18,0.67,0.048,0.89-0.297c0.226-0.342,0.158-0.767-0.122-0.931  c-0.284-0.161-1.982-0.813-2.182-0.512C73.107,64.895,74.447,66.147,74.716,66.331z"/><path d="M87.886,74.004c0.06,0.038,0.166-0.022,0.237-0.133c0.071-0.111,0.079-0.232,0.019-0.269c-0.06-0.037-0.45-0.154-0.52-0.045  C87.551,73.666,87.826,73.965,87.886,74.004z"/><path d="M61.74,57.972c0.41,0.282,0.866,0.289,1.038,0.029c0.089-0.127,0.073-0.3-0.019-0.47c-0.09-0.169-0.253-0.331-0.466-0.454  c-0.213-0.123-0.941-0.473-1.621-0.779c-0.679-0.303-1.312-0.569-1.377-0.479c-0.061,0.092,0.458,0.548,1.033,1.031  C60.905,57.333,61.538,57.835,61.74,57.972z"/><path d="M64.37,62.918c0.319,0.289,0.769,0.3,1.008,0.027c0.239-0.274,0.132-0.729-0.204-0.991  c-0.169-0.133-0.767-0.513-1.339-0.838c-0.574-0.325-1.112-0.593-1.213-0.486c-0.097,0.11,0.268,0.601,0.688,1.111  C63.731,62.249,64.21,62.774,64.37,62.918z"/><path d="M68.247,66.163c0.252,0.225,0.642,0.191,0.873-0.075c0.234-0.263,0.183-0.667-0.078-0.873  c-0.132-0.105-0.607-0.395-1.068-0.632c-0.461-0.236-0.909-0.423-1.013-0.308C66.763,64.501,67.999,65.934,68.247,66.163z"/><path d="M76.147,72.721c0.162,0.142,0.46,0.064,0.665-0.173c0.208-0.235,0.225-0.547,0.059-0.682  c-0.169-0.134-1.242-0.694-1.437-0.475C75.242,71.612,75.986,72.578,76.147,72.721z"/><path d="M80.14,76.002c0.128,0.11,0.38,0.028,0.563-0.185c0.185-0.211,0.221-0.475,0.089-0.583c-0.13-0.105-0.992-0.526-1.169-0.324  C79.449,75.113,80.013,75.89,80.14,76.002z"/><path d="M72.197,69.618c0.243,0.216,0.657,0.141,0.925-0.169c0.272-0.306,0.257-0.742,0.006-0.94  c-0.127-0.102-0.593-0.37-1.053-0.581c-0.459-0.209-0.911-0.365-1.035-0.227C70.804,67.974,71.957,69.398,72.197,69.618z"/><path d="M84.177,79.045c0.054,0.046,0.167,0.002,0.253-0.098c0.086-0.1,0.111-0.218,0.056-0.263  c-0.055-0.045-0.425-0.215-0.509-0.117C83.893,78.665,84.123,78.999,84.177,79.045z"/><path d="M60.506,59.543c0.363,0.332,0.819,0.406,1.027,0.172c0.205-0.237,0.034-0.689-0.352-0.985  c-0.194-0.151-0.866-0.599-1.499-0.996c-0.636-0.398-1.217-0.741-1.296-0.662c-0.075,0.083,0.375,0.605,0.877,1.164  C59.765,58.791,60.324,59.378,60.506,59.543z"/><path d="M62.424,64.805c0.276,0.331,0.721,0.405,0.997,0.169c0.268-0.245,0.233-0.704-0.066-1.011  c-0.149-0.155-0.689-0.615-1.211-1.016c-0.525-0.402-1.02-0.742-1.132-0.647c-0.112,0.095,0.181,0.63,0.526,1.193  C61.883,64.055,62.285,64.641,62.424,64.805z"/><path d="M65.815,68.556c0.218,0.257,0.611,0.279,0.877,0.049c0.262-0.235,0.274-0.636,0.042-0.878  c-0.238-0.242-1.706-1.418-1.93-1.217C64.576,66.706,65.6,68.295,65.815,68.556z"/><path d="M72.732,76.145c0.141,0.163,0.448,0.128,0.684-0.078c0.236-0.206,0.295-0.515,0.15-0.67  c-0.15-0.158-1.134-0.859-1.354-0.667C71.99,74.922,72.592,75.981,72.732,76.145z"/><path d="M76.233,79.947c0.111,0.127,0.373,0.081,0.584-0.104c0.213-0.183,0.279-0.446,0.166-0.568  c-0.117-0.125-0.907-0.654-1.11-0.48C75.672,78.972,76.123,79.819,76.233,79.947z"/><path d="M69.249,72.525c0.211,0.248,0.632,0.232,0.941-0.037c0.305-0.273,0.357-0.699,0.134-0.932  c-0.23-0.234-1.684-1.328-1.954-1.087C68.097,70.705,69.042,72.274,69.249,72.525z"/><path d="M79.811,83.521c0.047,0.053,0.166,0.025,0.265-0.062c0.099-0.087,0.14-0.2,0.092-0.253c-0.047-0.051-0.39-0.271-0.488-0.186  C79.582,83.105,79.764,83.468,79.811,83.521z"/><path d="M59.063,60.927c0.313,0.379,0.756,0.517,0.996,0.316c0.23-0.213,0.13-0.677-0.213-1.026  c-0.171-0.177-0.776-0.713-1.348-1.195c-0.575-0.482-1.106-0.905-1.191-0.833c-0.087,0.07,0.286,0.65,0.705,1.271  C58.434,60.081,58.906,60.739,59.063,60.927z"/><path d="M60.238,66.403c0.227,0.366,0.658,0.503,0.965,0.31c0.294-0.213,0.328-0.664,0.073-1.011  c-0.126-0.174-0.598-0.705-1.059-1.175c-0.463-0.47-0.911-0.883-1.03-0.796c-0.125,0.077,0.091,0.647,0.355,1.252  C59.807,65.586,60.123,66.221,60.238,66.403z"/><path d="M63.076,70.589c0.18,0.285,0.567,0.362,0.863,0.173c0.286-0.205,0.359-0.592,0.162-0.866  c-0.201-0.271-1.497-1.646-1.741-1.471C62.107,68.586,62.899,70.301,63.076,70.589z"/><path d="M68.874,79.065c0.117,0.181,0.426,0.19,0.689,0.019c0.256-0.18,0.363-0.47,0.239-0.646  c-0.126-0.175-1.008-1.014-1.247-0.845C68.31,77.752,68.758,78.883,68.874,79.065z"/><path d="M71.815,83.316c0.092,0.141,0.359,0.132,0.594-0.022c0.23-0.161,0.338-0.405,0.241-0.543  c-0.098-0.138-0.811-0.779-1.031-0.625C71.395,82.273,71.723,83.174,71.815,83.316z"/><path d="M65.926,74.996c0.174,0.275,0.595,0.318,0.939,0.096c0.334-0.237,0.451-0.643,0.261-0.907  c-0.193-0.262-1.488-1.555-1.783-1.345C65.039,73.035,65.756,74.718,65.926,74.996z"/><path d="M74.863,87.352c0.039,0.059,0.161,0.048,0.271-0.024c0.108-0.075,0.163-0.184,0.123-0.243  c-0.04-0.058-0.348-0.322-0.454-0.247C74.695,86.909,74.824,87.293,74.863,87.352z"/><path d="M57.448,62.096c0.257,0.419,0.677,0.62,0.943,0.456c0.251-0.186,0.222-0.65-0.071-1.046c-0.145-0.199-0.67-0.814-1.17-1.372  c-0.502-0.556-0.973-1.056-1.061-0.988c-0.095,0.057,0.193,0.68,0.522,1.353C56.942,61.171,57.318,61.887,57.448,62.096z"/><path d="M57.857,67.678c0.173,0.391,0.585,0.599,0.91,0.44c0.321-0.167,0.418-0.607,0.214-0.986  c-0.101-0.19-0.494-0.782-0.885-1.313c-0.393-0.531-0.78-1.003-0.909-0.935c-0.128,0.071,0.002,0.654,0.18,1.292  C57.544,66.809,57.769,67.482,57.857,67.678z"/><path d="M60.084,72.22c0.138,0.304,0.514,0.446,0.829,0.289c0.313-0.161,0.439-0.533,0.282-0.831  c-0.161-0.296-1.253-1.84-1.52-1.702C59.407,70.11,59.948,71.908,60.084,72.22z"/><path d="M64.644,81.423c0.089,0.192,0.4,0.255,0.678,0.11c0.28-0.142,0.427-0.413,0.329-0.605c-0.1-0.191-0.858-1.145-1.119-1.012  C64.272,80.052,64.553,81.224,64.644,81.423z"/><path d="M66.963,86.043c0.071,0.151,0.34,0.187,0.59,0.056c0.251-0.127,0.393-0.353,0.316-0.503  c-0.077-0.15-0.696-0.885-0.935-0.764C66.696,84.957,66.892,85.888,66.963,86.043z"/><path d="M62.292,76.982c0.133,0.293,0.549,0.406,0.915,0.223c0.365-0.186,0.538-0.571,0.386-0.859  c-0.155-0.286-1.258-1.748-1.58-1.583C61.69,74.925,62.16,76.68,62.292,76.982z"/><path d="M69.421,90.465c0.031,0.064,0.151,0.067,0.27,0.008c0.118-0.059,0.188-0.159,0.157-0.223  c-0.032-0.063-0.3-0.367-0.416-0.309C69.315,90,69.39,90.401,69.421,90.465z"/><path d="M55.695,63.023c0.195,0.448,0.587,0.717,0.867,0.583c0.274-0.146,0.31-0.607,0.075-1.039c-0.116-0.217-0.55-0.9-0.967-1.523  c-0.419-0.621-0.816-1.184-0.913-1.131c-0.096,0.054,0.099,0.701,0.332,1.414C55.323,62.037,55.596,62.798,55.695,63.023z"/><path d="M55.327,68.607c0.06,0.207,0.182,0.375,0.334,0.479c0.076,0.052,0.16,0.088,0.246,0.105  c0.085,0.013,0.172,0.005,0.257-0.024c0.342-0.118,0.499-0.536,0.351-0.941c-0.073-0.203-0.38-0.844-0.693-1.426  c-0.315-0.581-0.632-1.105-0.769-1.057c-0.069,0.024-0.09,0.19-0.083,0.432c0.006,0.237,0.039,0.551,0.082,0.877  C55.139,67.703,55.267,68.4,55.327,68.607z"/><path d="M56.895,73.417c0.094,0.321,0.448,0.518,0.779,0.398c0.333-0.113,0.51-0.461,0.397-0.779c-0.118-0.316-0.984-2-1.267-1.903  C56.522,71.238,56.805,73.089,56.895,73.417z"/><path d="M60.121,83.17c0.063,0.209,0.357,0.3,0.655,0.198c0.298-0.1,0.482-0.347,0.412-0.55c-0.072-0.203-0.69-1.255-0.967-1.161  C59.943,81.753,60.061,82.966,60.121,83.17z"/><path d="M61.771,88.071c0.05,0.162,0.307,0.221,0.574,0.132c0.267-0.089,0.44-0.292,0.385-0.452  c-0.056-0.159-0.565-0.974-0.82-0.889C61.655,86.946,61.723,87.91,61.771,88.071z"/><path d="M58.414,78.441c0.091,0.31,0.487,0.482,0.874,0.345c0.388-0.131,0.614-0.486,0.505-0.793  c-0.114-0.305-1.002-1.909-1.344-1.793C58.108,76.324,58.326,78.126,58.414,78.441z"/><path d="M63.582,92.786c0.021,0.067,0.141,0.088,0.266,0.047c0.126-0.042,0.209-0.13,0.187-0.198  c-0.022-0.067-0.246-0.406-0.37-0.365C63.542,92.311,63.561,92.718,63.582,92.786z"/><path d="M53.839,63.694c0.067,0.237,0.185,0.434,0.326,0.563c0.141,0.13,0.305,0.19,0.449,0.134c0.292-0.103,0.393-0.55,0.22-1.011  c-0.084-0.231-0.418-0.969-0.745-1.645c-0.328-0.675-0.642-1.29-0.745-1.253c-0.101,0.042,0.004,0.717,0.133,1.451  C53.609,62.666,53.772,63.457,53.839,63.694z"/><path d="M52.69,69.174c0.03,0.213,0.128,0.398,0.265,0.524c0.136,0.121,0.31,0.175,0.487,0.144c0.356-0.064,0.572-0.452,0.48-0.88  c-0.044-0.211-0.256-0.882-0.486-1.506c-0.231-0.621-0.472-1.186-0.615-1.16c-0.144,0.025-0.178,0.642-0.184,1.303  C52.631,68.254,52.659,68.961,52.69,69.174z"/><path d="M53.57,74.159c0.049,0.339,0.369,0.559,0.715,0.497c0.346-0.062,0.571-0.379,0.503-0.71  c-0.073-0.329-0.695-2.121-0.99-2.068C53.503,71.932,53.528,73.829,53.57,74.159z"/><path d="M55.398,84.262c0.033,0.213,0.311,0.342,0.62,0.287c0.309-0.055,0.526-0.272,0.485-0.483  c-0.043-0.211-0.507-1.341-0.795-1.29C55.419,82.828,55.367,84.049,55.398,84.262z"/><path d="M56.344,89.341c0.027,0.167,0.273,0.263,0.55,0.214c0.277-0.049,0.476-0.224,0.445-0.39  c-0.033-0.166-0.423-1.046-0.688-0.999C56.387,88.213,56.319,89.175,56.344,89.341z"/><path d="M54.371,79.346c0.048,0.327,0.412,0.529,0.816,0.457c0.403-0.072,0.677-0.389,0.612-0.708  c-0.07-0.318-0.725-2.033-1.081-1.97C54.362,77.189,54.329,79.029,54.371,79.346z"/><path d="M57.477,94.265c0.012,0.07,0.127,0.108,0.257,0.085c0.13-0.023,0.226-0.098,0.213-0.168  c-0.013-0.07-0.187-0.437-0.315-0.414C57.504,93.79,57.465,94.195,57.477,94.265z"/><path d="M51.903,64.1c0.064,0.488,0.368,0.86,0.672,0.795c0.151-0.028,0.271-0.148,0.336-0.322c0.065-0.176,0.076-0.413,0.024-0.652  c-0.052-0.242-0.277-1.011-0.505-1.724c-0.231-0.716-0.457-1.371-0.565-1.351c-0.109,0.017-0.096,0.72-0.073,1.462  C51.82,63.052,51.87,63.857,51.903,64.1z"/><path d="M49.982,69.372c-0.001,0.431,0.293,0.77,0.657,0.762c0.365,0.001,0.633-0.384,0.602-0.811  c-0.014-0.215-0.132-0.913-0.273-1.554c-0.142-0.636-0.305-1.237-0.453-1.233c-0.148,0.003-0.269,0.604-0.368,1.258  C50.051,68.449,49.982,69.157,49.982,69.372z"/><path d="M50.167,74.423c0.002,0.337,0.289,0.603,0.641,0.595c0.175-0.005,0.332-0.074,0.44-0.191  c0.108-0.119,0.168-0.277,0.158-0.446c-0.01-0.168-0.112-0.714-0.245-1.215c-0.134-0.503-0.295-0.971-0.45-0.966  C50.409,72.207,50.17,74.086,50.167,74.423z"/><path d="M50.58,84.68c0.003,0.215,0.26,0.384,0.572,0.375c0.313-0.008,0.557-0.191,0.545-0.406  c-0.013-0.215-0.315-1.401-0.607-1.393C50.799,83.265,50.579,84.465,50.58,84.68z"/><path d="M50.814,89.843c0.003,0.169,0.233,0.3,0.513,0.292c0.28-0.008,0.5-0.152,0.491-0.32c-0.009-0.168-0.273-1.096-0.54-1.089  C51.011,88.733,50.812,89.674,50.814,89.843z"/><path d="M50.243,79.671c0.002,0.325,0.335,0.581,0.744,0.57c0.204-0.006,0.386-0.075,0.513-0.187c0.127-0.116,0.2-0.269,0.19-0.432  c-0.009-0.162-0.122-0.688-0.272-1.169c-0.152-0.486-0.339-0.934-0.524-0.929C50.532,77.533,50.246,79.345,50.243,79.671z"/><path d="M51.253,94.878c0.002,0.071,0.11,0.125,0.241,0.121c0.131-0.004,0.235-0.064,0.232-0.135  c-0.003-0.071-0.124-0.46-0.253-0.456C51.345,94.413,51.251,94.808,51.253,94.878z"/><path d="M49.903,64.24c-0.004,0.498,0.248,0.879,0.564,0.875c0.317,0.005,0.537-0.434,0.5-0.919  c-0.017-0.245-0.134-1.044-0.262-1.778c-0.129-0.729-0.265-1.411-0.379-1.412c-0.113,0.001-0.202,0.687-0.282,1.435  C49.966,63.19,49.903,63.996,49.903,64.24z"/><path d="M47.273,69.186c-0.061,0.427,0.181,0.808,0.541,0.857c0.362,0.03,0.679-0.3,0.707-0.728c0.015-0.215-0.005-0.924-0.057-1.58  c-0.053-0.658-0.132-1.257-0.278-1.272c-0.145-0.021-0.346,0.555-0.533,1.188C47.468,68.283,47.302,68.973,47.273,69.186z"/><path d="M46.758,74.217c-0.045,0.334,0.202,0.641,0.55,0.687c0.35,0.032,0.656-0.224,0.68-0.559c0.02-0.338-0.089-2.219-0.389-2.246  C47.303,72.059,46.808,73.883,46.758,74.217z"/><path d="M45.755,84.437c-0.026,0.214,0.205,0.419,0.516,0.457c0.312,0.032,0.58-0.127,0.598-0.34c0.016-0.216-0.121-1.42-0.412-1.45  C46.166,83.068,45.783,84.224,45.755,84.437z"/><path d="M45.277,89.584c-0.02,0.168,0.19,0.331,0.469,0.365c0.279,0.03,0.518-0.093,0.533-0.259c0.014-0.17-0.121-1.114-0.387-1.143  C45.625,88.514,45.298,89.417,45.277,89.584z"/><path d="M46.111,79.425c-0.043,0.322,0.252,0.626,0.658,0.677c0.407,0.038,0.758-0.204,0.783-0.527  c0.02-0.326-0.142-2.143-0.502-2.177C46.691,77.352,46.158,79.104,46.111,79.425z"/><path d="M45.019,94.635c-0.008,0.07,0.092,0.14,0.223,0.156c0.131,0.017,0.243-0.034,0.25-0.104c0.007-0.071-0.06-0.467-0.189-0.484  C45.175,94.187,45.027,94.565,45.019,94.635z"/><path d="M47.903,64.094c-0.072,0.487,0.121,0.909,0.43,0.954c0.313,0.023,0.59-0.357,0.62-0.847c0.016-0.245,0.01-1.054-0.015-1.801  c-0.027-0.749-0.069-1.43-0.18-1.44c-0.109-0.018-0.289,0.646-0.47,1.373C48.11,63.06,47.937,63.85,47.903,64.094z"/><path d="M44.633,68.634c-0.119,0.409,0.062,0.84,0.414,0.921c0.353,0.079,0.709-0.195,0.797-0.617  c0.045-0.211,0.124-0.916,0.166-1.575c0.04-0.659,0.048-1.27-0.094-1.301c-0.144-0.026-0.42,0.506-0.692,1.107  C44.952,67.768,44.691,68.427,44.633,68.634z"/><path d="M43.419,73.545c-0.09,0.32,0.106,0.677,0.449,0.752c0.343,0.078,0.678-0.125,0.75-0.454  c0.067-0.331,0.223-2.216-0.069-2.282c-0.151-0.031-0.403,0.382-0.637,0.845C43.677,72.869,43.463,73.383,43.419,73.545z"/><path d="M40.996,83.527c-0.056,0.206,0.143,0.451,0.45,0.518c0.306,0.072,0.593-0.041,0.641-0.251  c0.046-0.21,0.079-1.429-0.207-1.495C41.593,82.236,41.054,83.318,40.996,83.527z"/><path d="M39.803,88.558c-0.043,0.164,0.142,0.358,0.417,0.42c0.274,0.065,0.528-0.017,0.566-0.181  c0.037-0.165,0.036-1.125-0.226-1.187C40.297,87.55,39.847,88.396,39.803,88.558z"/><path d="M42.049,78.612c-0.086,0.308,0.158,0.669,0.558,0.758c0.399,0.093,0.779-0.091,0.848-0.408  c0.065-0.319,0.16-2.149-0.192-2.23c-0.181-0.038-0.455,0.352-0.703,0.792C42.312,77.964,42.092,78.455,42.049,78.612z"/><path d="M38.844,93.522c-0.017,0.069,0.073,0.149,0.202,0.18c0.129,0.031,0.247-0.001,0.263-0.069  c0.016-0.069,0.006-0.474-0.121-0.504C39.062,93.098,38.862,93.453,38.844,93.522z"/><path d="M45.97,63.679c-0.138,0.467-0.014,0.932,0.288,1.003c0.303,0.065,0.626-0.264,0.724-0.746  c0.051-0.241,0.158-1.043,0.238-1.789c0.078-0.746,0.137-1.433,0.029-1.454c-0.109-0.016-0.374,0.602-0.654,1.299  C46.318,62.685,46.038,63.442,45.97,63.679z"/><path d="M42.098,67.72c-0.175,0.389-0.058,0.843,0.282,0.967c0.337,0.131,0.726-0.087,0.872-0.492  c0.074-0.202,0.252-0.891,0.386-1.539c0.133-0.648,0.227-1.254,0.091-1.307c-0.136-0.053-0.492,0.454-0.843,1.004  C42.535,66.908,42.185,67.523,42.098,67.72z"/><path d="M40.206,72.414c-0.136,0.31,0.012,0.68,0.341,0.803c0.327,0.129,0.687-0.023,0.804-0.339  c0.112-0.318,0.532-2.165,0.253-2.275c-0.143-0.057-0.455,0.328-0.752,0.753C40.557,71.781,40.274,72.259,40.206,72.414z"/><path d="M36.407,81.959c-0.085,0.199,0.083,0.454,0.375,0.57c0.292,0.116,0.592,0.046,0.668-0.156  c0.075-0.202,0.279-1.405,0.006-1.513C37.185,80.752,36.493,81.763,36.407,81.959z"/><path d="M34.522,86.769c-0.066,0.155,0.093,0.367,0.355,0.471c0.262,0.104,0.524,0.06,0.585-0.097c0.06-0.158,0.194-1.11-0.056-1.21  C35.156,85.834,34.589,86.614,34.522,86.769z"/><path d="M38.14,77.239c-0.131,0.3,0.065,0.678,0.448,0.824c0.381,0.151,0.782,0.025,0.895-0.28c0.109-0.307,0.46-2.107,0.124-2.24  c-0.172-0.069-0.502,0.289-0.81,0.692C38.491,76.634,38.205,77.089,38.14,77.239z"/><path d="M32.878,91.545c-0.027,0.065,0.051,0.158,0.174,0.207c0.123,0.049,0.244,0.035,0.27-0.031  c0.026-0.066,0.072-0.469-0.049-0.518C33.153,91.156,32.905,91.48,32.878,91.545z"/><path d="M44.116,63c-0.101,0.224-0.138,0.452-0.112,0.642c0.023,0.194,0.114,0.337,0.259,0.39c0.289,0.111,0.653-0.163,0.82-0.634  c0.084-0.231,0.3-1.004,0.486-1.735c0.183-0.729,0.338-1.403,0.235-1.441c-0.103-0.036-0.461,0.557-0.832,1.198  C44.6,62.065,44.217,62.775,44.116,63z"/><path d="M39.857,67.453l1.803-3.116c0.127,0.073-0.051,0.661-0.274,1.285c-0.225,0.626-0.491,1.273-0.594,1.464  C40.588,67.473,40.17,67.635,39.857,67.453z"/><path d="M37.41,71.683l1.412-2.441c0.26,0.15-0.414,1.922-0.57,2.221C38.091,71.761,37.715,71.859,37.41,71.683z"/><path d="M32.38,80.377l0.901-1.558c0.254,0.146-0.117,1.31-0.22,1.499C32.957,80.507,32.652,80.534,32.38,80.377z"/><path d="M29.835,84.776l0.706-1.22c0.232,0.134-0.034,1.059-0.115,1.207C30.343,84.91,30.078,84.916,29.835,84.776z"/><path d="M34.792,76.207l1.361-2.353c0.313,0.18-0.287,1.916-0.438,2.204C35.561,76.344,35.147,76.411,34.792,76.207z"/><path d="M27.397,88.989l0.296-0.512c0.113,0.065,0.01,0.458-0.025,0.52C27.633,89.059,27.512,89.055,27.397,88.989z"/><path d="M42.372,63.107l2.059-3.558c0.096,0.055-0.152,0.702-0.435,1.4c-0.282,0.69-0.605,1.427-0.72,1.644  c-0.115,0.217-0.273,0.389-0.439,0.485C42.675,63.168,42.506,63.183,42.372,63.107z"/><path d="M70.097,49.989h-3.6c-0.006,0.148,0.587,0.29,1.235,0.411c0.648,0.119,1.351,0.213,1.566,0.22  C69.729,50.635,70.084,50.353,70.097,49.989z"/><path d="M74.984,49.989h-2.82c-0.01,0.302,1.855,0.606,2.192,0.62C74.693,50.619,74.974,50.341,74.984,49.989z"/><path d="M85.028,49.989h-1.8c-0.006,0.292,1.182,0.553,1.398,0.559C84.841,50.551,85.021,50.301,85.028,49.989z"/><path d="M90.11,49.989H88.7c-0.005,0.267,0.926,0.498,1.095,0.502C89.963,50.493,90.105,50.268,90.11,49.989z"/><path d="M80.21,49.989h-2.718c-0.009,0.362,1.787,0.71,2.111,0.724C79.928,50.722,80.201,50.397,80.21,49.989z"/><path d="M94.977,49.989h-0.591c-0.002,0.129,0.388,0.237,0.459,0.237C94.916,50.226,94.975,50.12,94.977,49.989z"/><path d="M65.075,49.989h-4.111c-0.007,0.113,0.671,0.226,1.412,0.331c0.741,0.104,1.545,0.194,1.791,0.202  C64.659,50.544,65.06,50.305,65.075,49.989z"/><path d="M37.515,64.872c-0.282,0.333-0.277,0.783,0.01,1.005c0.142,0.111,0.322,0.145,0.499,0.103  c0.18-0.046,0.353-0.163,0.48-0.337c0.127-0.174,0.485-0.784,0.789-1.365c0.306-0.586,0.565-1.146,0.45-1.237  c-0.115-0.091-0.595,0.294-1.091,0.733C38.156,64.216,37.654,64.705,37.515,64.872z"/><path d="M34.403,68.863c-0.216,0.259-0.166,0.645,0.111,0.863c0.276,0.218,0.662,0.174,0.865-0.101  c0.193-0.271,1.108-1.933,0.872-2.119C36.015,67.319,34.622,68.607,34.403,68.863z"/><path d="M28.125,76.983c-0.136,0.167-0.047,0.46,0.2,0.654c0.247,0.194,0.552,0.21,0.681,0.038c0.128-0.173,0.658-1.275,0.428-1.456  C29.204,76.039,28.262,76.817,28.125,76.983z"/><path d="M24.986,81.087c-0.106,0.131-0.013,0.379,0.208,0.552c0.221,0.173,0.483,0.204,0.585,0.07  c0.101-0.135,0.494-1.015,0.284-1.18C25.851,80.364,25.093,80.957,24.986,81.087z"/><path d="M31.087,72.931c-0.208,0.25-0.116,0.659,0.206,0.912c0.322,0.253,0.739,0.246,0.935-0.02  c0.186-0.261,1.025-1.898,0.74-2.121C32.684,71.478,31.298,72.683,31.087,72.931z"/><path d="M22.086,85.225c-0.044,0.055,0.004,0.167,0.108,0.248c0.104,0.081,0.223,0.102,0.266,0.046  c0.043-0.056,0.2-0.431,0.098-0.511C22.456,84.928,22.13,85.17,22.086,85.225z"/><path d="M40.757,60.889c-0.159,0.188-0.257,0.398-0.285,0.589c-0.023,0.184,0.026,0.347,0.148,0.443  c0.241,0.201,0.683,0.017,0.97-0.383c0.144-0.199,0.568-0.885,0.942-1.529c0.371-0.643,0.711-1.258,0.622-1.325  c-0.087-0.069-0.596,0.402-1.138,0.924C41.479,60.126,40.915,60.701,40.757,60.889z"/><path d="M35.558,62.995c-0.325,0.291-0.376,0.732-0.127,0.996c0.244,0.269,0.707,0.213,1.004-0.097  c0.15-0.154,0.59-0.709,0.971-1.243c0.377-0.532,0.716-1.055,0.614-1.161c-0.101-0.107-0.628,0.207-1.181,0.573  C36.287,62.43,35.717,62.851,35.558,62.995z"/><path d="M31.927,66.514c-0.25,0.227-0.254,0.617-0.012,0.872c0.121,0.127,0.279,0.195,0.436,0.198c0.161,0,0.319-0.061,0.437-0.181  c0.118-0.12,0.455-0.562,0.738-0.996c0.286-0.438,0.524-0.869,0.417-0.981C33.736,65.209,32.18,66.29,31.927,66.514z"/><path d="M24.585,73.688c-0.158,0.147-0.111,0.45,0.106,0.676c0.217,0.227,0.516,0.286,0.668,0.133  c0.151-0.154,0.829-1.172,0.627-1.384C25.784,72.902,24.744,73.542,24.585,73.688z"/><path d="M20.908,77.318c-0.123,0.115-0.066,0.374,0.128,0.577c0.194,0.203,0.449,0.27,0.569,0.151  c0.119-0.12,0.631-0.937,0.445-1.13C21.865,76.722,21.032,77.203,20.908,77.318z"/><path d="M28.08,70.083c-0.24,0.219-0.207,0.637,0.076,0.933c0.141,0.148,0.316,0.235,0.483,0.256  c0.171,0.017,0.334-0.032,0.448-0.148c0.114-0.116,0.429-0.551,0.686-0.986c0.26-0.439,0.466-0.877,0.339-1.011  C29.862,68.866,28.324,69.867,28.08,70.083z"/><path d="M17.462,81.015c-0.051,0.049-0.019,0.166,0.072,0.261c0.091,0.095,0.206,0.132,0.257,0.083c0.05-0.05,0.258-0.4,0.168-0.493  C17.87,80.772,17.514,80.967,17.462,81.015z"/><path d="M39.32,59.499c-0.373,0.331-0.494,0.777-0.278,1.003c0.208,0.235,0.68,0.108,1.015-0.246  c0.171-0.177,0.685-0.799,1.145-1.386c0.455-0.585,0.873-1.143,0.797-1.225c-0.076-0.082-0.645,0.313-1.253,0.755  C40.137,58.847,39.505,59.333,39.32,59.499z"/><path d="M33.883,60.864c-0.358,0.24-0.475,0.673-0.266,0.969c0.101,0.149,0.269,0.228,0.456,0.232  c0.185,0.006,0.383-0.058,0.553-0.191c0.17-0.132,0.682-0.621,1.135-1.097c0.449-0.476,0.848-0.94,0.767-1.062  c-0.084-0.12-0.649,0.117-1.246,0.402C34.686,60.404,34.061,60.743,33.883,60.864z"/><path d="M29.801,63.845c-0.279,0.19-0.339,0.577-0.135,0.864c0.198,0.291,0.599,0.342,0.864,0.136  c0.266-0.212,1.584-1.546,1.416-1.796C31.772,62.804,30.082,63.659,29.801,63.845z"/><path d="M21.535,69.933c-0.176,0.123-0.173,0.431,0.01,0.686c0.181,0.256,0.471,0.355,0.645,0.223  c0.168-0.13,0.979-1.043,0.81-1.283C22.83,69.322,21.713,69.812,21.535,69.933z"/><path d="M17.39,73.019c-0.138,0.097-0.118,0.362,0.046,0.59c0.164,0.228,0.406,0.331,0.541,0.23  c0.134-0.102,0.755-0.841,0.599-1.059C18.419,72.562,17.528,72.923,17.39,73.019z"/><path d="M25.496,66.848c-0.268,0.184-0.294,0.603-0.057,0.937c0.232,0.337,0.653,0.432,0.909,0.234  c0.256-0.203,1.493-1.535,1.289-1.834C27.428,65.89,25.767,66.667,25.496,66.848z"/><path d="M13.465,76.205c-0.057,0.041-0.042,0.162,0.035,0.269c0.077,0.107,0.186,0.16,0.243,0.118  c0.057-0.042,0.311-0.36,0.235-0.466C13.902,76.021,13.522,76.164,13.465,76.205z"/><path d="M38.091,57.926c-0.414,0.275-0.591,0.696-0.414,0.953c0.085,0.13,0.252,0.18,0.444,0.158c0.19-0.02,0.402-0.111,0.596-0.263  c0.193-0.152,0.789-0.697,1.327-1.214c0.534-0.518,1.016-1.006,0.957-1.1c-0.063-0.092-0.679,0.22-1.342,0.574  C38.996,57.389,38.293,57.789,38.091,57.926z"/><path d="M32.526,58.526c-0.388,0.188-0.566,0.6-0.403,0.923c0.165,0.322,0.627,0.393,0.995,0.179  c0.187-0.107,0.763-0.52,1.278-0.929c0.516-0.411,0.965-0.809,0.904-0.942c-0.065-0.131-0.656,0.026-1.286,0.225  C33.384,58.183,32.719,58.431,32.526,58.526z"/><path d="M28.067,60.91c-0.302,0.15-0.417,0.524-0.258,0.838c0.157,0.315,0.551,0.418,0.839,0.253  c0.147-0.083,0.593-0.415,0.985-0.755c0.392-0.34,0.731-0.685,0.664-0.824C30.163,60.154,28.372,60.765,28.067,60.91z"/><path d="M19.033,65.788c-0.192,0.098-0.232,0.403-0.088,0.682c0.14,0.281,0.425,0.413,0.612,0.309  c0.189-0.107,1.107-0.893,0.977-1.156C20.399,65.364,19.226,65.692,19.033,65.788z"/><path d="M14.498,68.268c-0.15,0.077-0.168,0.343-0.038,0.593c0.127,0.251,0.36,0.383,0.508,0.301  c0.146-0.082,0.857-0.724,0.736-0.964C15.581,67.959,14.649,68.192,14.498,68.268z"/><path d="M23.386,63.284c-0.291,0.145-0.377,0.557-0.189,0.922c0.184,0.366,0.592,0.516,0.871,0.357  c0.142-0.08,0.565-0.412,0.932-0.76c0.366-0.348,0.678-0.709,0.597-0.875C25.431,62.605,23.68,63.143,23.386,63.284z"/><path d="M10.167,70.877c-0.063,0.033-0.064,0.155-0.003,0.272c0.061,0.117,0.161,0.185,0.223,0.151  c0.062-0.034,0.358-0.314,0.298-0.429S10.23,70.844,10.167,70.877z"/><path d="M37.1,56.204c-0.444,0.212-0.684,0.606-0.546,0.885c0.143,0.276,0.625,0.286,1.044,0.038  c0.213-0.123,0.879-0.58,1.484-1.018c0.607-0.441,1.141-0.851,1.099-0.953c-0.048-0.099-0.7,0.124-1.404,0.382  C38.074,55.797,37.322,56.096,37.1,56.204z"/><path d="M31.511,56.029c-0.41,0.132-0.647,0.515-0.535,0.859c0.131,0.337,0.564,0.476,0.962,0.314c0.2-0.08,0.828-0.409,1.397-0.742  c0.569-0.335,1.075-0.667,1.023-0.804c-0.044-0.139-0.65-0.067-1.3,0.042C32.408,55.809,31.715,55.961,31.511,56.029z"/><path d="M26.761,57.764c-0.32,0.106-0.489,0.461-0.377,0.795c0.125,0.328,0.487,0.491,0.8,0.366c0.313-0.13,1.957-1.051,1.85-1.331  C28.94,57.31,27.083,57.663,26.761,57.764z"/><path d="M17.131,61.33c-0.204,0.07-0.287,0.368-0.185,0.665c0.109,0.295,0.368,0.468,0.568,0.39c0.201-0.08,1.225-0.731,1.123-1.006  C18.542,61.102,17.335,61.262,17.131,61.33z"/><path d="M12.293,63.151c-0.159,0.055-0.215,0.316-0.123,0.583c0.096,0.265,0.311,0.428,0.467,0.368  c0.158-0.062,0.95-0.598,0.858-0.85C13.408,62.997,12.453,63.097,12.293,63.151z"/><path d="M21.794,59.459c-0.309,0.102-0.453,0.5-0.321,0.888c0.145,0.383,0.515,0.593,0.816,0.474  c0.302-0.125,1.866-1.066,1.738-1.404C23.912,59.074,22.104,59.361,21.794,59.459z"/><path d="M7.638,65.129c-0.067,0.024-0.086,0.145-0.042,0.27c0.043,0.125,0.138,0.204,0.204,0.18  c0.067-0.025,0.394-0.259,0.352-0.382C8.109,65.073,7.705,65.105,7.638,65.129z"/><path d="M36.367,54.37c-0.469,0.148-0.765,0.504-0.672,0.8c0.116,0.288,0.576,0.369,1.03,0.181c0.228-0.093,0.952-0.452,1.614-0.801  c0.662-0.351,1.258-0.684,1.219-0.786c-0.031-0.105-0.706,0.025-1.439,0.182C37.387,54.103,36.601,54.294,36.367,54.37z"/><path d="M30.855,53.414c-0.421,0.072-0.726,0.423-0.648,0.776c0.084,0.352,0.486,0.552,0.904,0.447  c0.209-0.051,0.878-0.289,1.489-0.539c0.61-0.252,1.163-0.511,1.129-0.653c-0.04-0.14-0.635-0.158-1.297-0.14  C31.774,53.322,31.067,53.376,30.855,53.414z"/><path d="M25.907,54.467c-0.328,0.059-0.56,0.391-0.482,0.733c0.08,0.342,0.409,0.555,0.737,0.476  c0.327-0.084,2.09-0.768,2.022-1.059C28.116,54.325,26.244,54.411,25.907,54.467z"/><path d="M15.87,56.649c-0.208,0.04-0.346,0.325-0.271,0.631c0.069,0.306,0.297,0.515,0.507,0.467  c0.209-0.051,1.319-0.553,1.254-0.839C17.29,56.622,16.086,56.609,15.87,56.649z"/><path d="M10.824,57.773c-0.165,0.032-0.263,0.284-0.197,0.558c0.062,0.275,0.246,0.467,0.411,0.43  c0.164-0.039,1.028-0.459,0.969-0.722C11.944,57.778,10.991,57.742,10.824,57.773z"/><path d="M20.752,55.449c-0.316,0.057-0.53,0.434-0.439,0.833c0.092,0.399,0.423,0.661,0.739,0.584  c0.315-0.081,2.002-0.795,1.921-1.147C22.891,55.368,21.076,55.395,20.752,55.449z"/><path d="M5.938,59.079c-0.069,0.014-0.102,0.131-0.073,0.26s0.109,0.222,0.178,0.207c0.069-0.015,0.429-0.202,0.401-0.329  C6.415,59.089,6.007,59.065,5.938,59.079z"/><path d="M35.897,52.451c-0.481,0.08-0.841,0.396-0.777,0.699c0.075,0.301,0.512,0.448,0.989,0.325  c0.239-0.06,1.007-0.314,1.713-0.567c0.705-0.255,1.348-0.503,1.32-0.609c-0.032-0.105-0.704-0.075-1.453-0.023  C36.943,52.33,36.139,52.409,35.897,52.451z"/><path d="M30.567,50.721c-0.43,0.013-0.781,0.321-0.744,0.682c0.029,0.362,0.395,0.619,0.823,0.573  c0.214-0.022,0.911-0.164,1.553-0.327c0.641-0.165,1.227-0.347,1.215-0.493c-0.009-0.147-0.627-0.245-1.274-0.322  C31.488,50.758,30.782,50.713,30.567,50.721z"/><path d="M25.518,51.079c-0.168,0.007-0.32,0.084-0.427,0.204c-0.101,0.119-0.157,0.282-0.144,0.457  c0.027,0.351,0.32,0.609,0.656,0.575c0.335-0.038,2.18-0.469,2.157-0.769c-0.012-0.154-0.49-0.267-1.008-0.347  C26.24,51.117,25.687,51.071,25.518,51.079z"/><path d="M15.276,51.845c-0.215,0.011-0.372,0.273-0.348,0.585c0.023,0.312,0.217,0.55,0.432,0.531  c0.214-0.021,1.386-0.364,1.364-0.655C16.701,52.014,15.491,51.836,15.276,51.845z"/><path d="M10.126,52.256C9.957,52.265,9.837,52.5,9.857,52.78c0.021,0.28,0.175,0.495,0.343,0.481  c0.168-0.015,1.083-0.311,1.064-0.578C11.244,52.415,10.294,52.248,10.126,52.256z"/><path d="M20.276,51.335c-0.162,0.007-0.309,0.095-0.409,0.233c-0.097,0.138-0.149,0.326-0.133,0.53  c0.031,0.408,0.319,0.713,0.643,0.681c0.323-0.036,2.097-0.508,2.069-0.869c-0.014-0.184-0.477-0.325-0.978-0.425  C20.971,51.386,20.439,51.328,20.276,51.335z"/><path d="M5.112,52.869c-0.071,0.004-0.12,0.115-0.111,0.246c0.01,0.131,0.075,0.234,0.145,0.228c0.071-0.006,0.454-0.14,0.444-0.269  C5.582,52.945,5.182,52.864,5.112,52.869z"/><path d="M35.695,50.465c-0.488,0.012-0.898,0.281-0.862,0.592c0.026,0.313,0.432,0.523,0.929,0.466  c0.245-0.026,1.034-0.169,1.772-0.324c0.736-0.156,1.409-0.314,1.4-0.425c-0.009-0.111-0.706-0.175-1.444-0.23  C36.746,50.492,35.94,50.457,35.695,50.465z"/><path d="M30.646,48.002c-0.428-0.046-0.795,0.211-0.823,0.573c-0.037,0.361,0.314,0.669,0.744,0.682  c0.215,0.008,0.921-0.037,1.573-0.112c0.647-0.077,1.265-0.175,1.274-0.322c0.012-0.147-0.574-0.328-1.215-0.493  C31.558,48.165,30.861,48.023,30.646,48.002z"/><path d="M25.604,47.663c-0.336-0.033-0.629,0.224-0.656,0.575c-0.013,0.175,0.042,0.337,0.144,0.457  c0.107,0.12,0.259,0.196,0.427,0.204c0.169,0.007,0.721-0.038,1.234-0.119c0.518-0.081,0.996-0.193,1.008-0.347  C27.784,48.133,25.939,47.701,25.604,47.663z"/><path d="M15.359,47.016c-0.215-0.019-0.408,0.219-0.432,0.531c-0.023,0.312,0.133,0.574,0.348,0.585  c0.215,0.009,1.425-0.17,1.447-0.461C16.745,47.38,15.573,47.037,15.359,47.016z"/><path d="M10.2,46.717c-0.168-0.014-0.322,0.201-0.343,0.481c-0.021,0.28,0.1,0.514,0.269,0.523c0.169,0.008,1.118-0.159,1.138-0.426  C11.284,47.028,10.368,46.732,10.2,46.717z"/><path d="M20.376,47.198c-0.324-0.032-0.612,0.273-0.643,0.681c-0.015,0.203,0.037,0.392,0.133,0.53  c0.1,0.138,0.247,0.226,0.409,0.233c0.163,0.007,0.695-0.05,1.192-0.15c0.501-0.101,0.964-0.241,0.978-0.425  C22.473,47.705,20.7,47.234,20.376,47.198z"/><path d="M5.147,46.635c-0.071-0.005-0.136,0.097-0.145,0.228s0.04,0.241,0.111,0.246c0.071,0.004,0.47-0.076,0.479-0.205  C5.601,46.775,5.217,46.64,5.147,46.635z"/><path d="M35.762,48.454c-0.497-0.056-0.903,0.154-0.929,0.466c-0.036,0.311,0.374,0.58,0.862,0.592  c0.246,0.008,1.052-0.027,1.795-0.079c0.738-0.055,1.435-0.119,1.444-0.23c0.01-0.111-0.664-0.269-1.4-0.425  C36.796,48.624,36.007,48.48,35.762,48.454z"/><path d="M31.111,45.341c-0.418-0.105-0.82,0.095-0.904,0.447c-0.077,0.353,0.228,0.704,0.648,0.776  c0.212,0.038,0.919,0.092,1.576,0.11c0.662,0.017,1.257,0,1.297-0.14c0.035-0.142-0.518-0.401-1.129-0.653  C31.989,45.63,31.32,45.392,31.111,45.341z"/><path d="M26.163,44.301c-0.328-0.08-0.657,0.133-0.737,0.476c-0.079,0.343,0.154,0.674,0.482,0.733  c0.337,0.056,2.209,0.142,2.277-0.15C28.253,45.068,26.49,44.385,26.163,44.301z"/><path d="M16.106,42.231c-0.21-0.049-0.437,0.16-0.507,0.467c-0.074,0.305,0.063,0.591,0.271,0.631  c0.215,0.039,1.419,0.026,1.49-0.258C17.425,42.785,16.315,42.282,16.106,42.231z"/><path d="M11.038,41.217c-0.164-0.037-0.349,0.155-0.411,0.43c-0.065,0.274,0.033,0.526,0.197,0.558  c0.167,0.031,1.119-0.005,1.182-0.266C12.065,41.676,11.202,41.255,11.038,41.217z"/><path d="M21.051,43.111c-0.316-0.077-0.647,0.185-0.739,0.584c-0.091,0.399,0.123,0.776,0.439,0.833  c0.325,0.055,2.139,0.082,2.221-0.271C23.054,43.905,21.367,43.192,21.051,43.111z"/><path d="M6.042,40.432c-0.069-0.015-0.149,0.077-0.178,0.207c-0.029,0.129,0.004,0.246,0.073,0.26  c0.069,0.014,0.477-0.01,0.505-0.137C6.471,40.634,6.111,40.448,6.042,40.432z"/><path d="M36.109,46.502c-0.476-0.123-0.914,0.024-0.989,0.325c-0.064,0.304,0.295,0.619,0.777,0.699  c0.242,0.042,1.047,0.121,1.792,0.174c0.75,0.052,1.421,0.082,1.453-0.023c0.028-0.106-0.615-0.353-1.32-0.609  C37.116,46.816,36.347,46.562,36.109,46.502z"/><path d="M31.938,42.776c-0.398-0.162-0.831-0.023-0.962,0.314c-0.113,0.343,0.124,0.727,0.535,0.859  c0.205,0.067,0.898,0.22,1.548,0.33c0.65,0.109,1.256,0.181,1.3,0.042c0.051-0.136-0.455-0.469-1.023-0.804  C32.767,43.185,32.138,42.857,31.938,42.776z"/><path d="M27.184,41.052c-0.312-0.125-0.674,0.038-0.8,0.366c-0.112,0.333,0.057,0.689,0.377,0.795  c0.322,0.101,2.179,0.454,2.273,0.17C29.141,42.103,27.496,41.182,27.184,41.052z"/><path d="M17.514,37.592c-0.2-0.077-0.459,0.096-0.568,0.39c-0.102,0.297-0.019,0.595,0.185,0.665  c0.204,0.068,1.411,0.228,1.506-0.049C18.739,38.323,17.715,37.672,17.514,37.592z"/><path d="M12.638,35.876c-0.157-0.06-0.371,0.103-0.467,0.368c-0.092,0.266-0.037,0.527,0.123,0.583  c0.16,0.054,1.114,0.154,1.202-0.1C13.587,36.474,12.796,35.938,12.638,35.876z"/><path d="M22.289,39.157c-0.301-0.12-0.672,0.091-0.816,0.474c-0.132,0.388,0.012,0.785,0.321,0.888  c0.31,0.098,2.118,0.385,2.234,0.042C24.155,40.223,22.591,39.281,22.289,39.157z"/><path d="M7.8,34.399c-0.065-0.024-0.161,0.055-0.204,0.18c-0.044,0.125-0.025,0.246,0.042,0.27c0.067,0.024,0.471,0.056,0.514-0.067  C8.194,34.658,7.867,34.424,7.8,34.399z"/><path d="M36.725,44.628c-0.453-0.188-0.914-0.107-1.03,0.181c-0.093,0.296,0.202,0.652,0.672,0.8  c0.234,0.076,1.02,0.267,1.752,0.425c0.732,0.156,1.408,0.286,1.439,0.182c0.04-0.102-0.557-0.435-1.219-0.786  C37.677,45.079,36.952,44.72,36.725,44.628z"/><path d="M33.117,40.349c-0.368-0.215-0.829-0.143-0.995,0.179c-0.163,0.323,0.016,0.735,0.403,0.923  c0.193,0.095,0.859,0.343,1.488,0.544c0.63,0.199,1.221,0.356,1.286,0.225c0.061-0.133-0.388-0.531-0.904-0.942  C33.88,40.869,33.304,40.456,33.117,40.349z"/><path d="M28.649,37.976c-0.289-0.165-0.682-0.061-0.839,0.253c-0.16,0.313-0.045,0.688,0.258,0.838  c0.305,0.145,2.095,0.756,2.231,0.488c0.067-0.139-0.272-0.484-0.664-0.824C29.241,38.392,28.796,38.06,28.649,37.976z"/><path d="M19.557,33.197c-0.187-0.104-0.472,0.028-0.612,0.309c-0.144,0.279-0.104,0.585,0.088,0.682  c0.193,0.096,1.367,0.424,1.501,0.164C20.664,34.091,19.745,33.305,19.557,33.197z"/><path d="M14.968,30.816c-0.148-0.082-0.381,0.05-0.508,0.301c-0.13,0.25-0.112,0.515,0.038,0.593  c0.151,0.076,1.083,0.309,1.206,0.07C15.825,31.54,15.114,30.898,14.968,30.816z"/><path d="M24.067,35.415c-0.278-0.159-0.687-0.009-0.871,0.357c-0.187,0.364-0.102,0.777,0.189,0.922  c0.293,0.141,2.045,0.678,2.21,0.356c0.081-0.166-0.231-0.527-0.597-0.875C24.632,35.828,24.209,35.495,24.067,35.415z"/><path d="M10.387,28.677c-0.062-0.034-0.162,0.034-0.223,0.151c-0.061,0.117-0.059,0.239,0.003,0.272  c0.063,0.033,0.459,0.121,0.519,0.006C10.745,28.991,10.449,28.711,10.387,28.677z"/><path d="M37.599,42.851c-0.419-0.248-0.901-0.238-1.044,0.038c-0.138,0.279,0.102,0.673,0.546,0.885  c0.221,0.108,0.974,0.407,1.677,0.666c0.705,0.258,1.357,0.481,1.404,0.382c0.042-0.102-0.492-0.511-1.099-0.953  C38.478,43.431,37.811,42.974,37.599,42.851z"/><path d="M34.626,38.103c-0.17-0.132-0.368-0.196-0.553-0.191c-0.188,0.004-0.355,0.083-0.456,0.232  c-0.209,0.297-0.092,0.729,0.266,0.969c0.178,0.121,0.803,0.46,1.399,0.747c0.597,0.285,1.162,0.523,1.246,0.402  c0.082-0.122-0.318-0.587-0.767-1.062C35.308,38.724,34.796,38.235,34.626,38.103z"/><path d="M30.53,35.132c-0.265-0.205-0.666-0.155-0.864,0.136c-0.203,0.287-0.143,0.673,0.135,0.864  c0.281,0.186,1.971,1.041,2.145,0.796C32.113,36.678,30.795,35.344,30.53,35.132z"/><path d="M22.189,29.135c-0.174-0.132-0.464-0.033-0.645,0.223c-0.182,0.255-0.186,0.563-0.01,0.686  c0.178,0.122,1.295,0.611,1.465,0.373C23.169,30.178,22.358,29.265,22.189,29.135z"/><path d="M17.977,26.138c-0.135-0.101-0.378,0.001-0.541,0.23c-0.164,0.228-0.184,0.493-0.046,0.59  c0.139,0.096,1.03,0.457,1.186,0.239C18.731,26.979,18.111,26.24,17.977,26.138z"/><path d="M26.349,31.959c-0.256-0.198-0.676-0.103-0.909,0.234c-0.238,0.333-0.212,0.753,0.057,0.937  c0.271,0.18,1.932,0.957,2.141,0.663C27.842,33.494,26.605,32.162,26.349,31.959z"/><path d="M13.742,23.386c-0.057-0.042-0.166,0.011-0.243,0.118c-0.077,0.107-0.092,0.228-0.035,0.269  c0.058,0.041,0.437,0.184,0.513,0.079C14.053,23.746,13.799,23.428,13.742,23.386z"/><path d="M38.717,41.203c-0.193-0.152-0.405-0.242-0.596-0.263c-0.192-0.022-0.359,0.029-0.444,0.158  c-0.178,0.257-0.001,0.678,0.414,0.953c0.203,0.136,0.905,0.537,1.568,0.892c0.663,0.353,1.279,0.665,1.342,0.574  c0.059-0.094-0.423-0.582-0.957-1.1C39.506,41.9,38.91,41.355,38.717,41.203z"/><path d="M36.434,36.084c-0.297-0.31-0.76-0.366-1.004-0.097c-0.249,0.264-0.197,0.706,0.127,0.996  c0.159,0.144,0.729,0.565,1.281,0.932c0.552,0.366,1.08,0.679,1.181,0.572c0.102-0.105-0.237-0.629-0.614-1.161  C37.024,36.793,36.584,36.238,36.434,36.084z"/><path d="M32.788,32.574c-0.118-0.12-0.276-0.181-0.437-0.181c-0.157,0.004-0.315,0.072-0.436,0.198  c-0.243,0.255-0.238,0.645,0.012,0.872c0.253,0.224,1.809,1.305,2.016,1.087c0.107-0.112-0.131-0.543-0.417-0.981  C33.243,33.136,32.907,32.694,32.788,32.574z"/><path d="M25.359,25.48c-0.152-0.153-0.452-0.093-0.668,0.133c-0.217,0.227-0.264,0.53-0.106,0.676  c0.159,0.145,1.198,0.786,1.4,0.574C26.188,26.652,25.51,25.634,25.359,25.48z"/><path d="M21.604,21.932c-0.12-0.119-0.375-0.052-0.569,0.151c-0.194,0.203-0.251,0.461-0.128,0.577  c0.124,0.115,0.957,0.596,1.142,0.403C22.235,22.869,21.723,22.052,21.604,21.932z"/><path d="M29.087,28.853c-0.114-0.116-0.277-0.165-0.448-0.148c-0.167,0.021-0.342,0.108-0.483,0.256  c-0.283,0.296-0.316,0.714-0.076,0.933c0.243,0.216,1.782,1.217,2.031,0.955c0.128-0.134-0.078-0.572-0.339-1.011  C29.516,29.404,29.201,28.969,29.087,28.853z"/><path d="M17.791,18.619c-0.051-0.049-0.166-0.013-0.257,0.083c-0.091,0.095-0.123,0.212-0.072,0.261  c0.051,0.049,0.408,0.243,0.497,0.15C18.049,19.018,17.842,18.668,17.791,18.619z"/><path d="M40.057,39.721c-0.335-0.353-0.807-0.481-1.015-0.245c-0.217,0.226-0.096,0.672,0.278,1.003  c0.185,0.166,0.817,0.652,1.426,1.097c0.609,0.442,1.177,0.837,1.253,0.755c0.076-0.082-0.342-0.64-0.797-1.225  C40.742,40.52,40.228,39.898,40.057,39.721z"/><path d="M38.504,34.334c-0.127-0.174-0.3-0.29-0.48-0.337c-0.177-0.042-0.357-0.008-0.499,0.103  c-0.287,0.222-0.292,0.672-0.01,1.005c0.139,0.167,0.641,0.656,1.137,1.097c0.497,0.439,0.976,0.824,1.091,0.733  c0.116-0.09-0.144-0.651-0.45-1.237C38.99,35.118,38.631,34.508,38.504,34.334z"/><path d="M35.379,30.353c-0.203-0.276-0.589-0.319-0.865-0.101c-0.277,0.218-0.327,0.603-0.111,0.863  c0.219,0.256,1.612,1.544,1.848,1.358C36.487,32.286,35.572,30.623,35.379,30.353z"/><path d="M29.006,22.302c-0.129-0.172-0.435-0.155-0.681,0.038c-0.247,0.194-0.336,0.487-0.2,0.654  c0.137,0.166,1.079,0.944,1.309,0.764C29.664,23.577,29.134,22.476,29.006,22.302z"/><path d="M25.778,18.268c-0.102-0.134-0.364-0.104-0.585,0.07c-0.221,0.173-0.314,0.421-0.208,0.552  c0.107,0.131,0.866,0.723,1.076,0.558C26.273,19.283,25.879,18.403,25.778,18.268z"/><path d="M32.228,26.155c-0.196-0.266-0.613-0.272-0.935-0.02c-0.322,0.253-0.414,0.661-0.206,0.912  c0.211,0.248,1.597,1.453,1.881,1.229C33.253,28.053,32.415,26.415,32.228,26.155z"/><path d="M22.46,14.458c-0.043-0.056-0.163-0.036-0.266,0.046c-0.104,0.081-0.152,0.193-0.108,0.248  c0.044,0.055,0.37,0.298,0.472,0.218C22.66,14.89,22.503,14.514,22.46,14.458z"/><path d="M41.589,38.439c-0.286-0.401-0.729-0.584-0.97-0.383c-0.122,0.096-0.171,0.259-0.148,0.443  c0.028,0.191,0.127,0.401,0.285,0.589c0.159,0.188,0.723,0.763,1.257,1.281c0.542,0.523,1.051,0.993,1.138,0.924  c0.089-0.067-0.251-0.682-0.622-1.325C42.156,39.324,41.733,38.638,41.589,38.439z"/><path d="M39.857,32.524l1.803,3.116c-0.126,0.073-0.549-0.378-0.978-0.879c-0.426-0.499-0.858-1.059-0.972-1.242  c-0.114-0.183-0.158-0.387-0.133-0.571C39.603,32.767,39.701,32.614,39.857,32.524z"/><path d="M37.41,28.294l1.412,2.441c-0.261,0.149-1.461-1.32-1.64-1.6C37.001,28.843,37.104,28.468,37.41,28.294z"/><path d="M32.38,19.6l0.901,1.558c-0.254,0.146-1.079-0.756-1.192-0.94C31.978,20.034,32.108,19.757,32.38,19.6z"/><path d="M29.835,15.201l0.706,1.22c-0.232,0.134-0.902-0.559-0.99-0.703C29.464,15.574,29.591,15.341,29.835,15.201z"/><path d="M34.792,23.77l1.361,2.353c-0.313,0.18-1.52-1.208-1.692-1.478C34.288,24.364,34.438,23.974,34.792,23.77z"/><path d="M27.397,10.988l0.296,0.512c-0.113,0.065-0.403-0.22-0.439-0.281C27.218,11.157,27.283,11.054,27.397,10.988z"/><path d="M42.372,36.871l2.059,3.558c-0.094,0.057-0.538-0.489-0.996-1.072c-0.458-0.587-0.937-1.236-1.067-1.444  C42.103,37.498,42.097,37.018,42.372,36.871z"/><path d="M39.857,67.453l1.803-3.116c-0.126-0.073-0.549,0.378-0.978,0.879c-0.426,0.499-0.858,1.059-0.972,1.242  c-0.114,0.183-0.158,0.387-0.133,0.571C39.603,67.21,39.701,67.363,39.857,67.453z"/><path d="M37.41,71.683l1.412-2.441c-0.261-0.149-1.461,1.32-1.64,1.6C37.001,71.134,37.104,71.509,37.41,71.683z"/><path d="M32.38,80.377l0.901-1.558c-0.254-0.146-1.079,0.756-1.192,0.94C31.978,79.943,32.108,80.22,32.38,80.377z"/><path d="M29.835,84.776l0.706-1.22c-0.232-0.134-0.902,0.559-0.99,0.703C29.464,84.404,29.591,84.636,29.835,84.776z"/><path d="M34.792,76.207l1.361-2.353c-0.313-0.18-1.52,1.208-1.692,1.478C34.288,75.613,34.438,76.003,34.792,76.207z"/><path d="M27.397,88.989l0.296-0.512c-0.113-0.065-0.403,0.22-0.439,0.281C27.218,88.82,27.283,88.923,27.397,88.989z"/><path d="M42.372,63.107l2.059-3.558c-0.094-0.057-0.538,0.489-0.996,1.072c-0.458,0.587-0.937,1.236-1.067,1.444  C42.103,62.479,42.097,62.96,42.372,63.107z"/><path d="M43.252,31.783c-0.146-0.405-0.536-0.623-0.872-0.492c-0.34,0.123-0.458,0.577-0.282,0.967  c0.087,0.197,0.437,0.812,0.789,1.367c0.352,0.55,0.707,1.057,0.843,1.004c0.136-0.053,0.041-0.658-0.091-1.307  C43.504,32.674,43.327,31.985,43.252,31.783z"/><path d="M41.351,27.1c-0.117-0.316-0.477-0.468-0.804-0.339c-0.329,0.123-0.478,0.493-0.341,0.803  c0.067,0.155,0.351,0.632,0.647,1.058c0.297,0.425,0.609,0.811,0.752,0.753C41.884,29.265,41.464,27.418,41.351,27.1z"/><path d="M37.451,17.604c-0.077-0.201-0.376-0.271-0.668-0.156c-0.292,0.116-0.46,0.371-0.375,0.57  c0.086,0.196,0.777,1.207,1.05,1.099C37.729,19.009,37.526,17.806,37.451,17.604z"/><path d="M35.462,12.835c-0.061-0.157-0.323-0.201-0.585-0.097c-0.262,0.104-0.421,0.315-0.355,0.471  c0.067,0.155,0.634,0.935,0.884,0.836C35.655,13.945,35.521,12.993,35.462,12.835z"/><path d="M39.483,22.195c-0.113-0.305-0.514-0.431-0.895-0.28c-0.383,0.145-0.58,0.524-0.448,0.824  c0.065,0.149,0.351,0.604,0.657,1.005c0.308,0.402,0.639,0.76,0.81,0.692C39.944,24.303,39.592,22.502,39.483,22.195z"/><path d="M33.322,8.255c-0.026-0.066-0.147-0.08-0.27-0.031c-0.123,0.049-0.201,0.142-0.174,0.207  c0.027,0.065,0.275,0.389,0.396,0.341C33.394,8.725,33.348,8.321,33.322,8.255z"/><path d="M45.082,36.581c-0.167-0.471-0.53-0.745-0.82-0.634c-0.144,0.053-0.235,0.196-0.259,0.39  c-0.025,0.19,0.012,0.417,0.112,0.642c0.101,0.224,0.484,0.934,0.855,1.581c0.371,0.642,0.729,1.235,0.832,1.198  c0.102-0.039-0.053-0.712-0.235-1.441C45.383,37.585,45.166,36.811,45.082,36.581z"/><path d="M45.843,31.039c-0.088-0.422-0.444-0.696-0.797-0.617c-0.352,0.081-0.533,0.512-0.414,0.921  c0.059,0.207,0.319,0.866,0.59,1.466c0.273,0.601,0.549,1.133,0.692,1.107c0.142-0.031,0.134-0.642,0.094-1.301  C45.967,31.955,45.888,31.25,45.843,31.039z"/><path d="M44.617,26.134c-0.071-0.33-0.407-0.533-0.75-0.454c-0.343,0.075-0.539,0.432-0.449,0.752  c0.045,0.163,0.259,0.676,0.492,1.139c0.235,0.463,0.486,0.875,0.637,0.845C44.84,28.35,44.684,26.465,44.617,26.134z"/><path d="M42.086,16.183c-0.048-0.21-0.335-0.323-0.641-0.251c-0.307,0.067-0.505,0.312-0.45,0.518  c0.058,0.209,0.597,1.291,0.884,1.229C42.165,17.612,42.132,16.394,42.086,16.183z"/><path d="M40.785,11.181c-0.038-0.164-0.292-0.246-0.566-0.181c-0.275,0.062-0.46,0.256-0.417,0.42  c0.044,0.162,0.494,1.007,0.757,0.949C40.821,12.307,40.822,11.346,40.785,11.181z"/><path d="M43.455,21.016c-0.069-0.318-0.449-0.501-0.848-0.408c-0.4,0.089-0.644,0.449-0.558,0.758  c0.043,0.157,0.263,0.648,0.51,1.089c0.248,0.44,0.522,0.83,0.703,0.792C43.615,23.165,43.52,21.335,43.455,21.016z"/><path d="M39.309,6.345c-0.017-0.069-0.135-0.1-0.263-0.069c-0.129,0.031-0.219,0.111-0.202,0.18  c0.018,0.068,0.218,0.424,0.344,0.394C39.315,6.82,39.325,6.414,39.309,6.345z"/><path d="M46.981,36.042c-0.098-0.482-0.42-0.811-0.724-0.746c-0.302,0.071-0.426,0.536-0.288,1.003  c0.068,0.236,0.348,0.994,0.625,1.688c0.28,0.697,0.545,1.314,0.654,1.299c0.107-0.022,0.049-0.709-0.029-1.454  C47.139,37.085,47.032,36.282,46.981,36.042z"/><path d="M48.521,30.662c-0.028-0.428-0.345-0.758-0.707-0.728c-0.359,0.049-0.601,0.43-0.541,0.857  c0.029,0.213,0.195,0.903,0.38,1.536c0.187,0.633,0.387,1.209,0.533,1.188c0.146-0.015,0.226-0.614,0.278-1.272  C48.516,31.586,48.536,30.877,48.521,30.662z"/><path d="M47.989,25.632c-0.025-0.335-0.33-0.591-0.68-0.559c-0.349,0.045-0.595,0.352-0.55,0.687  c0.05,0.334,0.544,2.158,0.842,2.118C47.9,27.851,48.009,25.971,47.989,25.632z"/><path d="M46.869,15.423c-0.018-0.213-0.286-0.372-0.598-0.34c-0.311,0.038-0.542,0.243-0.516,0.457  c0.028,0.214,0.411,1.369,0.702,1.333C46.748,16.843,46.885,15.64,46.869,15.423z"/><path d="M46.279,10.288c-0.015-0.167-0.254-0.289-0.533-0.259c-0.279,0.033-0.489,0.197-0.469,0.365  c0.021,0.167,0.349,1.07,0.615,1.037C46.158,11.402,46.293,10.457,46.279,10.288z"/><path d="M47.551,20.402c-0.024-0.323-0.375-0.565-0.783-0.527c-0.406,0.051-0.701,0.354-0.658,0.677  c0.047,0.322,0.58,2.073,0.939,2.027C47.41,22.545,47.571,20.728,47.551,20.402z"/><path d="M45.493,5.291c-0.007-0.069-0.119-0.121-0.25-0.104c-0.131,0.016-0.231,0.085-0.223,0.156  c0.008,0.07,0.156,0.448,0.284,0.432C45.433,5.758,45.499,5.362,45.493,5.291z"/><path d="M48.953,35.776c-0.029-0.49-0.307-0.87-0.62-0.847c-0.309,0.045-0.502,0.468-0.43,0.954  c0.034,0.243,0.207,1.034,0.385,1.761c0.18,0.727,0.36,1.391,0.47,1.373c0.111-0.01,0.152-0.691,0.18-1.44  C48.963,36.83,48.969,36.022,48.953,35.776z"/><path d="M51.241,30.655c0.031-0.427-0.236-0.812-0.602-0.811c-0.364-0.008-0.659,0.331-0.657,0.762  c-0.001,0.215,0.069,0.923,0.166,1.577c0.099,0.655,0.22,1.256,0.368,1.259c0.148,0.004,0.311-0.597,0.453-1.233  C51.109,31.567,51.227,30.869,51.241,30.655z"/><path d="M51.405,25.596c0.01-0.168-0.05-0.326-0.158-0.446c-0.108-0.117-0.264-0.186-0.44-0.191  c-0.352-0.009-0.639,0.257-0.641,0.595c0.003,0.337,0.242,2.217,0.544,2.223c0.155,0.004,0.316-0.463,0.45-0.966  C51.293,26.31,51.395,25.765,51.405,25.596z"/><path d="M51.697,15.327c0.011-0.215-0.233-0.397-0.545-0.406c-0.313-0.008-0.569,0.16-0.572,0.375  c-0.001,0.215,0.218,1.415,0.51,1.423C51.382,16.728,51.684,15.542,51.697,15.327z"/><path d="M51.818,10.163c0.008-0.168-0.212-0.312-0.491-0.32c-0.28-0.008-0.509,0.124-0.512,0.292  c-0.002,0.169,0.197,1.109,0.464,1.117C51.545,11.259,51.809,10.331,51.818,10.163z"/><path d="M51.69,20.355c0.01-0.162-0.063-0.315-0.19-0.432c-0.127-0.112-0.309-0.181-0.513-0.187  c-0.409-0.011-0.742,0.245-0.744,0.57c0.002,0.325,0.289,2.137,0.65,2.146c0.185,0.005,0.372-0.443,0.524-0.929  C51.568,21.043,51.68,20.517,51.69,20.355z"/><path d="M51.726,5.113c0.003-0.071-0.101-0.131-0.232-0.135c-0.131-0.004-0.239,0.051-0.241,0.121  c-0.002,0.071,0.092,0.466,0.221,0.469C51.603,5.572,51.723,5.183,51.726,5.113z"/><path d="M50.967,35.781c0.037-0.484-0.182-0.924-0.5-0.919c-0.316-0.004-0.569,0.377-0.564,0.875c0,0.244,0.063,1.05,0.141,1.799  c0.08,0.747,0.169,1.433,0.282,1.435c0.114,0,0.25-0.682,0.379-1.412C50.833,36.825,50.95,36.026,50.967,35.781z"/><path d="M53.922,31.016c0.092-0.428-0.124-0.816-0.48-0.88c-0.177-0.031-0.351,0.023-0.487,0.144  c-0.137,0.126-0.235,0.31-0.265,0.524c-0.03,0.213-0.059,0.92-0.053,1.575c0.006,0.661,0.04,1.278,0.184,1.303  c0.144,0.026,0.385-0.539,0.615-1.16C53.666,31.897,53.878,31.227,53.922,31.016z"/><path d="M54.788,26.031c0.068-0.33-0.157-0.648-0.503-0.71c-0.346-0.063-0.666,0.158-0.715,0.497  c-0.043,0.33-0.067,2.227,0.228,2.281C54.093,28.152,54.715,26.361,54.788,26.031z"/><path d="M56.502,15.911c0.041-0.211-0.176-0.428-0.485-0.483c-0.309-0.055-0.587,0.074-0.62,0.287  c-0.031,0.213,0.021,1.435,0.309,1.486C55.995,17.252,56.459,16.123,56.502,15.911z"/><path d="M57.339,10.813c0.032-0.166-0.167-0.341-0.445-0.39c-0.277-0.049-0.524,0.047-0.55,0.214  c-0.025,0.167,0.043,1.128,0.307,1.175C56.915,11.858,57.306,10.978,57.339,10.813z"/><path d="M55.798,20.882c0.065-0.319-0.208-0.636-0.612-0.708c-0.403-0.072-0.768,0.13-0.816,0.457  c-0.042,0.317-0.009,2.157,0.347,2.221C55.073,22.915,55.728,21.199,55.798,20.882z"/><path d="M57.947,5.796c0.013-0.07-0.083-0.145-0.213-0.168c-0.13-0.023-0.245,0.015-0.257,0.085  c-0.012,0.07,0.027,0.475,0.155,0.498C57.76,6.233,57.934,5.865,57.947,5.796z"/><path d="M52.936,36.055c0.051-0.239,0.041-0.475-0.024-0.652c-0.066-0.173-0.185-0.294-0.336-0.322  c-0.304-0.065-0.608,0.307-0.672,0.795c-0.034,0.244-0.083,1.048-0.11,1.792c-0.024,0.741-0.036,1.444,0.073,1.462  c0.108,0.02,0.334-0.635,0.565-1.351C52.659,37.066,52.884,36.297,52.936,36.055z"/><path d="M56.515,31.751c0.149-0.404-0.009-0.823-0.351-0.941c-0.085-0.029-0.172-0.037-0.257-0.024  c-0.086,0.017-0.17,0.053-0.246,0.105c-0.153,0.104-0.275,0.272-0.334,0.479c-0.06,0.207-0.188,0.903-0.275,1.555  c-0.043,0.326-0.076,0.64-0.082,0.877c-0.007,0.242,0.013,0.408,0.083,0.432c0.137,0.048,0.454-0.476,0.769-1.057  C56.135,32.594,56.442,31.953,56.515,31.751z"/><path d="M58.07,26.941c0.114-0.318-0.064-0.666-0.397-0.779c-0.331-0.12-0.685,0.077-0.779,0.398  c-0.091,0.328-0.373,2.18-0.092,2.284C57.086,28.941,57.952,27.257,58.07,26.941z"/><path d="M61.187,17.159c0.07-0.204-0.114-0.45-0.412-0.55c-0.297-0.102-0.591-0.011-0.655,0.198  c-0.06,0.204-0.178,1.418,0.099,1.514C60.498,18.414,61.115,17.362,61.187,17.159z"/><path d="M62.73,12.227c0.055-0.16-0.118-0.362-0.385-0.452c-0.267-0.089-0.524-0.031-0.574,0.132  c-0.048,0.161-0.116,1.124,0.139,1.209C62.165,13.201,62.674,12.386,62.73,12.227z"/><path d="M59.792,21.983c0.109-0.306-0.116-0.662-0.505-0.792c-0.386-0.137-0.783,0.035-0.874,0.345  c-0.088,0.316-0.306,2.118,0.034,2.241C58.791,23.892,59.679,22.288,59.792,21.983z"/><path d="M64.035,7.343c0.022-0.067-0.061-0.156-0.187-0.198c-0.126-0.042-0.245-0.021-0.266,0.046  c-0.021,0.067-0.04,0.475,0.084,0.516C63.789,7.749,64.013,7.41,64.035,7.343z"/><path d="M54.834,36.598c0.172-0.461,0.072-0.909-0.22-1.011c-0.143-0.055-0.308,0.004-0.449,0.134  c-0.141,0.128-0.259,0.326-0.326,0.563c-0.067,0.237-0.23,1.027-0.362,1.762c-0.129,0.733-0.234,1.409-0.133,1.451  c0.103,0.037,0.417-0.578,0.745-1.253C54.416,37.567,54.75,36.828,54.834,36.598z"/><path d="M58.981,32.845c0.204-0.38,0.107-0.819-0.214-0.986c-0.325-0.159-0.737,0.049-0.91,0.44  c-0.088,0.196-0.313,0.869-0.49,1.503c-0.178,0.637-0.308,1.221-0.18,1.292c0.129,0.068,0.516-0.404,0.909-0.935  C58.487,33.627,58.88,33.036,58.981,32.845z"/><path d="M61.194,28.299c0.157-0.299,0.031-0.67-0.282-0.831c-0.314-0.157-0.691-0.015-0.829,0.289  c-0.136,0.312-0.677,2.11-0.409,2.245C59.941,30.14,61.033,28.596,61.194,28.299z"/><path d="M65.651,19.049c0.098-0.192-0.049-0.463-0.329-0.605c-0.279-0.144-0.589-0.082-0.678,0.11  c-0.091,0.199-0.372,1.371-0.112,1.507C64.793,20.194,65.551,19.24,65.651,19.049z"/><path d="M67.869,14.381c0.076-0.15-0.065-0.376-0.316-0.503c-0.25-0.13-0.519-0.094-0.59,0.056c-0.072,0.155-0.267,1.086-0.029,1.21  C67.174,15.265,67.792,14.53,67.869,14.381z"/><path d="M63.593,23.632c0.151-0.288-0.022-0.673-0.386-0.859c-0.366-0.183-0.782-0.07-0.915,0.223  c-0.132,0.301-0.601,2.057-0.278,2.219C62.335,25.38,63.438,23.917,63.593,23.632z"/><path d="M69.847,9.727c0.031-0.063-0.039-0.163-0.157-0.223c-0.118-0.059-0.239-0.056-0.27,0.008  c-0.03,0.064-0.106,0.465,0.01,0.523C69.547,10.094,69.815,9.79,69.847,9.727z"/><path d="M56.638,37.41c0.235-0.432,0.199-0.893-0.075-1.039c-0.28-0.134-0.672,0.135-0.867,0.583  c-0.1,0.225-0.372,0.986-0.606,1.696c-0.233,0.714-0.428,1.36-0.332,1.414c0.096,0.053,0.493-0.51,0.913-1.131  C56.088,38.31,56.522,37.627,56.638,37.41z"/><path d="M61.276,34.276c0.255-0.348,0.221-0.798-0.073-1.011c-0.307-0.193-0.738-0.056-0.965,0.31  c-0.115,0.182-0.431,0.817-0.696,1.421c-0.263,0.605-0.479,1.174-0.355,1.252c0.118,0.087,0.567-0.326,1.029-0.796  C60.678,34.981,61.15,34.45,61.276,34.276z"/><path d="M64.101,30.081c0.197-0.274,0.125-0.661-0.162-0.866c-0.296-0.189-0.683-0.112-0.863,0.173  c-0.176,0.288-0.969,2.003-0.716,2.163C62.604,31.728,63.9,30.352,64.101,30.081z"/><path d="M69.802,21.54c0.124-0.176,0.017-0.466-0.239-0.646c-0.263-0.171-0.572-0.162-0.689,0.019  c-0.116,0.182-0.564,1.313-0.319,1.472C68.794,22.553,69.677,21.715,69.802,21.54z"/><path d="M72.65,17.226c0.097-0.138-0.011-0.382-0.241-0.543c-0.235-0.154-0.502-0.163-0.594-0.022  c-0.091,0.142-0.42,1.043-0.195,1.19C71.839,18.005,72.552,17.364,72.65,17.226z"/><path d="M67.126,25.793c0.19-0.264,0.073-0.671-0.261-0.907c-0.344-0.222-0.765-0.178-0.939,0.097  c-0.171,0.277-0.887,1.961-0.583,2.156C65.638,27.347,66.933,26.054,67.126,25.793z"/><path d="M75.258,12.892c0.04-0.058-0.015-0.167-0.123-0.243c-0.11-0.073-0.232-0.083-0.271-0.024  c-0.039,0.059-0.168,0.443-0.06,0.514C74.91,13.214,75.218,12.951,75.258,12.892z"/><path d="M58.32,38.471c0.293-0.395,0.322-0.859,0.071-1.046c-0.266-0.163-0.686,0.037-0.943,0.456  c-0.13,0.209-0.506,0.925-0.837,1.597c-0.329,0.673-0.617,1.297-0.522,1.353c0.088,0.068,0.56-0.433,1.061-0.988  C57.651,39.285,58.175,38.669,58.32,38.471z"/><path d="M63.355,36.014c0.299-0.307,0.334-0.766,0.066-1.011c-0.276-0.236-0.721-0.162-0.997,0.169  c-0.139,0.164-0.54,0.75-0.886,1.312c-0.345,0.563-0.638,1.099-0.526,1.193c0.112,0.095,0.608-0.245,1.132-0.647  C62.666,36.629,63.206,36.169,63.355,36.014z"/><path d="M66.734,32.25c0.231-0.242,0.22-0.643-0.042-0.878c-0.267-0.23-0.659-0.208-0.877,0.049c-0.215,0.26-1.239,1.85-1.01,2.046  C65.028,33.668,66.496,32.493,66.734,32.25z"/><path d="M73.565,24.58c0.145-0.155,0.086-0.464-0.15-0.67c-0.236-0.206-0.542-0.241-0.684-0.078  c-0.14,0.164-0.742,1.223-0.521,1.415C72.431,25.44,73.414,24.738,73.565,24.58z"/><path d="M76.983,20.702c0.113-0.122,0.046-0.385-0.166-0.568c-0.211-0.185-0.473-0.231-0.584-0.104  c-0.11,0.128-0.561,0.975-0.36,1.152C76.076,21.357,76.866,20.827,76.983,20.702z"/><path d="M70.325,28.422c0.223-0.233,0.17-0.659-0.134-0.932c-0.309-0.268-0.731-0.285-0.941-0.037  c-0.207,0.251-1.152,1.82-0.878,2.056C68.64,29.75,70.095,28.656,70.325,28.422z"/><path d="M80.167,16.771c0.048-0.053,0.007-0.167-0.092-0.253c-0.099-0.087-0.218-0.115-0.265-0.062  c-0.047,0.053-0.229,0.415-0.131,0.501C79.777,17.043,80.12,16.823,80.167,16.771z"/><path d="M59.847,39.76c0.343-0.349,0.442-0.813,0.213-1.026c-0.24-0.201-0.683-0.063-0.996,0.316  c-0.158,0.189-0.63,0.846-1.05,1.467c-0.419,0.622-0.792,1.201-0.705,1.271c0.085,0.072,0.616-0.351,1.191-0.833  C59.071,40.473,59.676,39.936,59.847,39.76z"/><path d="M65.174,38.023c0.336-0.261,0.443-0.717,0.204-0.991c-0.239-0.273-0.689-0.262-1.008,0.027  c-0.16,0.144-0.639,0.668-1.06,1.177c-0.42,0.51-0.785,1.001-0.688,1.111c0.101,0.107,0.639-0.162,1.213-0.486  C64.407,38.536,65.005,38.156,65.174,38.023z"/><path d="M69.043,34.763c0.261-0.206,0.312-0.611,0.078-0.873c-0.231-0.266-0.622-0.299-0.873-0.075  c-0.249,0.228-1.484,1.662-1.286,1.888c0.104,0.115,0.552-0.072,1.013-0.308C68.436,35.158,68.911,34.868,69.043,34.763z"/><path d="M76.87,28.111c0.167-0.135,0.149-0.447-0.059-0.682c-0.204-0.238-0.502-0.315-0.665-0.173  c-0.161,0.143-0.904,1.109-0.713,1.331C75.627,28.806,76.7,28.246,76.87,28.111z"/><path d="M80.792,24.743c0.132-0.108,0.096-0.371-0.089-0.583c-0.183-0.213-0.435-0.296-0.563-0.185  c-0.127,0.111-0.691,0.889-0.517,1.092C79.8,25.269,80.662,24.848,80.792,24.743z"/><path d="M73.128,31.468c0.251-0.199,0.266-0.634-0.006-0.94c-0.268-0.31-0.682-0.385-0.925-0.169  c-0.24,0.22-1.393,1.644-1.157,1.917c0.123,0.138,0.576-0.018,1.035-0.227C72.535,31.838,73.001,31.57,73.128,31.468z"/><path d="M84.487,21.293c0.054-0.045,0.029-0.163-0.056-0.263c-0.086-0.1-0.199-0.144-0.253-0.098c-0.054,0.046-0.284,0.38-0.2,0.478  C84.062,21.509,84.432,21.338,84.487,21.293z"/><path d="M61.181,41.248c0.386-0.297,0.557-0.748,0.352-0.985c-0.208-0.234-0.664-0.16-1.027,0.172  c-0.182,0.165-0.741,0.751-1.244,1.308c-0.502,0.558-0.952,1.081-0.877,1.164c0.08,0.079,0.66-0.265,1.296-0.662  C60.314,41.847,60.987,41.399,61.181,41.248z"/><path d="M66.696,40.261c0.368-0.211,0.544-0.651,0.339-0.95c-0.197-0.304-0.642-0.357-0.998-0.114  c-0.179,0.12-0.726,0.573-1.215,1.019c-0.487,0.447-0.918,0.883-0.838,1.005c0.082,0.121,0.663-0.077,1.271-0.316  C65.865,40.663,66.509,40.37,66.696,40.261z"/><path d="M70.98,37.569c0.29-0.17,0.392-0.56,0.196-0.852c-0.19-0.296-0.571-0.384-0.852-0.197c-0.278,0.191-1.701,1.441-1.538,1.693  C68.955,38.463,70.685,37.737,70.98,37.569z"/><path d="M79.656,32.069c0.187-0.112,0.202-0.418,0.033-0.682c-0.169-0.264-0.453-0.383-0.633-0.265  c-0.179,0.119-1.05,0.974-0.893,1.22C78.322,32.588,79.473,32.176,79.656,32.069z"/><path d="M84.008,29.278c0.144-0.087,0.14-0.351-0.011-0.588c-0.151-0.237-0.389-0.355-0.531-0.263  c-0.141,0.093-0.808,0.785-0.664,1.011C82.946,29.664,83.863,29.364,84.008,29.278z"/><path d="M75.484,34.874c0.28-0.164,0.348-0.589,0.122-0.931c-0.221-0.345-0.62-0.478-0.89-0.297  c-0.268,0.184-1.609,1.435-1.414,1.74C73.503,35.687,75.2,35.036,75.484,34.874z"/><path d="M88.141,26.376c0.06-0.037,0.052-0.158-0.019-0.269c-0.071-0.111-0.177-0.171-0.237-0.133  c-0.06,0.038-0.334,0.337-0.265,0.447C87.691,26.53,88.081,26.413,88.141,26.376z"/><path d="M62.292,42.9c0.213-0.123,0.376-0.285,0.466-0.454c0.093-0.17,0.108-0.343,0.019-0.47c-0.172-0.26-0.628-0.253-1.038,0.029  c-0.202,0.137-0.835,0.639-1.412,1.122c-0.575,0.483-1.095,0.939-1.033,1.031c0.065,0.09,0.698-0.177,1.377-0.479  C61.352,43.372,62.079,43.022,62.292,42.9z"/><path d="M67.888,42.683c0.4-0.16,0.623-0.565,0.466-0.891c-0.151-0.329-0.578-0.445-0.97-0.251  c-0.193,0.094-0.794,0.464-1.343,0.839c-0.546,0.375-1.035,0.746-0.974,0.879c0.058,0.133,0.67,0.014,1.306-0.138  C67.01,42.964,67.688,42.764,67.888,42.683z"/><path d="M72.508,40.616c0.316-0.13,0.458-0.496,0.31-0.815c-0.145-0.32-0.508-0.461-0.812-0.315  c-0.302,0.151-1.887,1.19-1.763,1.463c0.064,0.14,0.551,0.081,1.065-0.021C71.818,40.827,72.351,40.681,72.508,40.616z"/><path d="M81.865,36.382c0.198-0.084,0.255-0.384,0.126-0.671c-0.129-0.286-0.393-0.444-0.588-0.352  c-0.194,0.093-1.177,0.818-1.056,1.085C80.468,36.711,81.666,36.464,81.865,36.382z"/><path d="M86.56,34.227c0.155-0.066,0.188-0.329,0.072-0.586c-0.116-0.257-0.334-0.407-0.487-0.336  c-0.153,0.072-0.911,0.665-0.8,0.91C85.455,34.46,86.405,34.292,86.56,34.227z"/><path d="M77.344,38.576c0.305-0.125,0.418-0.531,0.247-0.903c-0.169-0.373-0.544-0.561-0.837-0.42  c-0.291,0.145-1.795,1.198-1.646,1.527c0.076,0.168,0.559,0.141,1.064,0.064C76.675,38.767,77.193,38.639,77.344,38.576z"/><path d="M91.059,31.929c0.065-0.028,0.074-0.149,0.019-0.27c-0.054-0.121-0.151-0.195-0.215-0.166  c-0.064,0.029-0.378,0.288-0.325,0.406C90.592,32.018,90.994,31.957,91.059,31.929z"/><path d="M63.158,44.68c0.455-0.179,0.748-0.565,0.609-0.844c-0.064-0.14-0.211-0.226-0.395-0.247  c-0.185-0.022-0.418,0.027-0.637,0.134c-0.223,0.109-0.911,0.514-1.55,0.911c-0.638,0.398-1.218,0.777-1.172,0.876  c0.044,0.1,0.722-0.082,1.433-0.286C62.162,45.017,62.93,44.772,63.158,44.68z"/><path d="M68.73,45.243c0.424-0.104,0.683-0.469,0.583-0.816c-0.049-0.173-0.176-0.305-0.342-0.374  c-0.173-0.068-0.382-0.075-0.587-0.009c-0.205,0.066-0.853,0.349-1.44,0.64c-0.594,0.295-1.132,0.594-1.092,0.734  c0.04,0.14,0.653,0.11,1.313,0.046C67.827,45.397,68.519,45.296,68.73,45.243z"/><path d="M73.594,43.844c0.327-0.083,0.514-0.424,0.418-0.762c-0.096-0.338-0.432-0.53-0.758-0.425  c-0.315,0.106-2.034,0.913-1.952,1.201C71.382,44.146,73.265,43.923,73.594,43.844z"/><path d="M83.445,40.966c0.208-0.055,0.308-0.345,0.222-0.648c-0.086-0.302-0.324-0.496-0.529-0.433  c-0.205,0.065-1.281,0.646-1.201,0.928C82.017,41.095,83.237,41.019,83.445,40.966z"/><path d="M88.397,39.49c0.163-0.044,0.233-0.3,0.156-0.571c-0.077-0.271-0.272-0.451-0.433-0.402c-0.161,0.05-0.996,0.531-0.922,0.79  C87.272,39.566,88.234,39.533,88.397,39.49z"/><path d="M78.667,42.503c0.315-0.08,0.481-0.465,0.369-0.859c-0.113-0.394-0.452-0.634-0.767-0.534  c-0.304,0.101-1.946,0.935-1.846,1.282C76.521,42.74,78.351,42.579,78.667,42.503z"/><path d="M93.175,37.845c0.068-0.019,0.094-0.138,0.058-0.265c-0.036-0.127-0.121-0.215-0.189-0.195  c-0.068,0.02-0.415,0.232-0.38,0.357C92.7,37.868,93.107,37.864,93.175,37.845z"/><path d="M63.766,46.557c0.238-0.059,0.443-0.17,0.577-0.307c0.127-0.134,0.183-0.294,0.142-0.442  c-0.044-0.147-0.168-0.255-0.356-0.299c-0.187-0.045-0.418-0.031-0.652,0.045c-0.234,0.076-0.98,0.383-1.66,0.683  c-0.68,0.302-1.316,0.598-1.284,0.702c0.029,0.105,0.717,0.022,1.463-0.084C62.734,46.75,63.527,46.616,63.766,46.557z"/><path d="M69.203,47.902c0.429-0.043,0.736-0.369,0.692-0.729c-0.019-0.179-0.129-0.328-0.293-0.419  c-0.161-0.092-0.365-0.128-0.577-0.092c-0.212,0.037-0.894,0.226-1.518,0.432c-0.62,0.207-1.191,0.428-1.177,0.574  c0.017,0.145,0.627,0.202,1.288,0.232C68.278,47.929,68.989,47.924,69.203,47.902z"/><path d="M74.209,47.196c0.335-0.037,0.571-0.349,0.527-0.698c-0.037-0.35-0.367-0.583-0.698-0.527  c-0.334,0.062-2.125,0.617-2.095,0.916C71.98,47.185,73.873,47.228,74.209,47.196z"/><path d="M84.369,45.722c0.214-0.026,0.355-0.299,0.315-0.61c-0.039-0.311-0.247-0.536-0.463-0.501  c-0.209,0.035-1.356,0.459-1.319,0.75C82.939,45.651,84.154,45.746,84.369,45.722z"/><path d="M89.479,44.954c0.167-0.021,0.275-0.264,0.238-0.543c-0.036-0.279-0.202-0.484-0.369-0.458  c-0.167,0.027-1.062,0.386-1.028,0.652C88.355,44.872,89.311,44.973,89.479,44.954z"/><path d="M79.42,46.577c0.323-0.036,0.544-0.394,0.492-0.8c-0.045-0.407-0.372-0.689-0.691-0.635c-0.321,0.059-2.04,0.65-2.001,1.01  C77.265,46.511,79.096,46.608,79.42,46.577z"/><path d="M94.442,43.994c0.07-0.009,0.113-0.123,0.096-0.254c-0.017-0.131-0.088-0.229-0.158-0.219c-0.07,0.01-0.444,0.171-0.427,0.3  C93.97,43.95,94.372,44.003,94.442,43.994z"/><path d="M64.109,48.51c0.49-0.047,0.849-0.335,0.813-0.644c-0.013-0.154-0.137-0.277-0.317-0.347  c-0.177-0.071-0.407-0.091-0.649-0.048c-0.242,0.043-1.024,0.242-1.742,0.445c-0.715,0.204-1.37,0.406-1.363,0.517  c0.012,0.11,0.702,0.125,1.453,0.126C63.055,48.557,63.865,48.535,64.109,48.51z"/><path d="M70.097,49.989h-3.6c-0.006-0.148,0.587-0.29,1.235-0.411c0.648-0.119,1.351-0.213,1.566-0.22  C69.729,49.342,70.084,49.624,70.097,49.989z"/><path d="M74.984,49.989h-2.82c-0.01-0.302,1.855-0.606,2.192-0.62C74.693,49.358,74.974,49.636,74.984,49.989z"/><path d="M85.028,49.989h-1.8c-0.006-0.292,1.182-0.553,1.398-0.559C84.841,49.426,85.021,49.676,85.028,49.989z"/><path d="M90.11,49.989H88.7c-0.005-0.267,0.926-0.498,1.095-0.502C89.963,49.484,90.105,49.709,90.11,49.989z"/><path d="M80.21,49.989h-2.718c-0.009-0.362,1.787-0.71,2.111-0.724C79.928,49.256,80.201,49.58,80.21,49.989z"/><path d="M94.977,49.989h-0.591c-0.002-0.129,0.388-0.237,0.459-0.237C94.916,49.751,94.975,49.857,94.977,49.989z"/><path d="M65.075,49.989h-4.111c-0.007-0.113,0.671-0.226,1.412-0.331c0.741-0.104,1.545-0.194,1.791-0.202  C64.659,49.434,65.06,49.673,65.075,49.989z"/><path d="M39.857,32.524l1.803,3.116c0.127-0.073-0.051-0.661-0.274-1.285c-0.225-0.626-0.491-1.273-0.594-1.464  C40.588,32.504,40.17,32.342,39.857,32.524z"/><path d="M37.41,28.294l1.412,2.441c0.26-0.15-0.414-1.922-0.57-2.221C38.091,28.216,37.715,28.119,37.41,28.294z"/><path d="M32.38,19.6l0.901,1.558c0.254-0.146-0.117-1.31-0.22-1.499C32.957,19.47,32.652,19.444,32.38,19.6z"/><path d="M29.835,15.201l0.706,1.22c0.232-0.134-0.034-1.059-0.115-1.207C30.343,15.067,30.078,15.061,29.835,15.201z"/><path d="M34.792,23.77l1.361,2.353c0.313-0.18-0.287-1.916-0.438-2.204C35.561,23.633,35.147,23.566,34.792,23.77z"/><path d="M27.397,10.988l0.296,0.512c0.113-0.065,0.01-0.458-0.025-0.52C27.633,10.918,27.512,10.922,27.397,10.988z"/><path d="M42.372,36.871l2.059,3.558c0.096-0.055-0.152-0.702-0.435-1.4c-0.282-0.69-0.605-1.427-0.72-1.644  c-0.115-0.217-0.273-0.389-0.439-0.485C42.675,36.81,42.506,36.794,42.372,36.871z"/><text x="0" y="115" fill="#000000" font-size="5px" font-weight="bold" font-family="'Helvetica Neue', Helvetica, Arial-Unicode, Arial, Sans-serif">Created by Edit Pongrcz</text><text x="0" y="120" fill="#000000" font-size="5px" font-weight="bold" font-family="'Helvetica Neue', Helvetica, Arial-Unicode, Arial, Sans-serif">from the Noun Project</text></svg>