<svg xmlns="http://www.w3.org/2000/svg" xmlns:xlink="http://www.w3.org/1999/xlink" xml:space="preserve" version="1.1" style="shape-rendering:geometricPrecision;text-rendering:geometricPrecision;image-rendering:optimizeQuality;" viewBox="0 0 36.65 38.2475" x="0px" y="0px" fill-rule="evenodd" clip-rule="evenodd"><g><path class="fil0" d="M20.452 0.583c9.789,0.034 19.551,3.692 14.345,15.395 -2.953,6.638 -9.725,16.15 -18.047,13.866 -5.98,-1.641 -15.523,-10.18 -15.997,-16.668 -0.678,-9.282 12.545,-12.612 19.699,-12.592zm-19.175 7.752c-4.228,6.74 2.806,13.718 10.002,19.07 3.102,2.307 7.339,3.98 11.207,2.809 2.401,-0.727 4.587,-2.526 7.045,-5.399 2.619,-3.06 5.412,-6.861 6.557,-10.933 0.896,-3.186 0.853,-6.022 -1.101,-8.757 -2.918,-4.084 -8.348,-5.297 -13.911,-5.106 -6.753,0.232 -15.926,2.143 -19.799,8.316z"/><path class="fil0" d="M19.818 4.193c14.42,-1.281 12.845,22.857 -2.473,20.913 -15.8,-2.005 -10.8,-19.734 2.473,-20.913zm10.207 10.145c0.993,-16.806 -21.605,-11.388 -22.929,0.768 -1.262,11.591 21.889,16.836 22.929,-0.768z"/><path class="fil0" d="M19.099 11.537c1.697,-0.287 2.338,0.763 2.292,2.28 -0.046,1.529 -0.823,2.482 -2.476,2.08 -3.468,-0.843 -2.961,-3.828 0.184,-4.36zm-2.824 2c-0.098,0.805 0.389,1.503 1.027,1.945 0.988,0.683 2.095,1.07 3.017,0.643 1.167,-0.54 1.384,-1.947 1.238,-3.101 -0.072,-0.565 -0.28,-1.084 -0.71,-1.425 -0.511,-0.405 -1.123,-0.533 -1.763,-0.422 -1.141,0.197 -2.659,1.129 -2.808,2.361z"/></g><text x="0" y="45.598" fill="#000000" font-size="5px" font-weight="bold" font-family="'Helvetica Neue', Helvetica, Arial-Unicode, Arial, Sans-serif">Created by Valeriia Vlasovtseva</text><text x="0" y="50.598" fill="#000000" font-size="5px" font-weight="bold" font-family="'Helvetica Neue', Helvetica, Arial-Unicode, Arial, Sans-serif">from the Noun Project</text></svg>