<?xml version="1.0" standalone="no"?>
<!DOCTYPE svg PUBLIC "-//W3C//DTD SVG 20010904//EN"
 "http://www.w3.org/TR/2001/REC-SVG-20010904/DTD/svg10.dtd">
<svg version="1.0" xmlns="http://www.w3.org/2000/svg"
 width="220.000000pt" height="216.000000pt" viewBox="0 0 220.000000 216.000000"
 preserveAspectRatio="xMidYMid meet">
<metadata>
Created by potrace 1.16, written by Peter Selinger 2001-2019
</metadata>
<g transform="translate(0.000000,216.000000) scale(0.100000,-0.100000)"
fill="#000000" stroke="none">
<path d="M391 1616 c-8 -9 -11 -112 -9 -362 l3 -349 458 -3 457 -2 0 -70 0
-70 -75 0 -75 0 0 -74 0 -75 -42 -3 -43 -3 -3 -58 -3 -57 101 0 100 0 0 30 0
30 125 0 124 0 3 57 3 58 200 5 200 5 0 175 0 175 -137 3 -138 3 -2 297 -3
297 -616 3 c-513 2 -618 0 -628 -12z m1489 -766 l0 -150 -272 2 -273 3 -3 97
-3 97 153 3 153 3 3 48 3 47 120 0 119 0 0 -150z m-580 -145 l0 -35 95 0 95 0
0 -50 0 -50 -155 0 -155 0 0 85 0 85 60 0 60 0 0 -35z"/>
</g>
</svg>
