<?xml version="1.0" standalone="no"?>
<!DOCTYPE svg PUBLIC "-//W3C//DTD SVG 20010904//EN"
 "http://www.w3.org/TR/2001/REC-SVG-20010904/DTD/svg10.dtd">
<svg version="1.0" xmlns="http://www.w3.org/2000/svg"
 width="252.000000pt" height="238.000000pt" viewBox="0 0 252.000000 238.000000"
 preserveAspectRatio="xMidYMid meet">
<metadata>
Created by potrace 1.16, written by Peter Selinger 2001-2019
</metadata>
<g transform="translate(0.000000,238.000000) scale(0.100000,-0.100000)"
fill="#000000" stroke="none">
<path d="M720 1840 l0 -200 40 0 40 0 0 155 0 155 95 0 95 0 0 45 0 45 -135 0
-135 0 0 -200z"/>
<path d="M1530 1995 l0 -45 95 0 c78 0 95 -3 95 -15 0 -11 11 -15 40 -15 l40
0 0 60 0 60 -135 0 -135 0 0 -45z"/>
<path d="M1620 1640 l0 -251 143 3 142 3 3 248 2 247 -145 0 -145 0 0 -250z"/>
<path d="M950 1240 l0 -540 310 0 310 0 0 540 0 540 -310 0 -310 0 0 -540z"/>
<path d="M612 833 l3 -248 143 -3 142 -3 0 251 0 250 -145 0 -145 0 2 -247z"/>
<path d="M1720 675 l0 -155 -95 0 -95 0 0 -40 0 -40 135 0 135 0 0 195 0 195
-40 0 -40 0 0 -155z"/>
<path d="M720 495 l0 -55 135 0 135 0 0 40 0 40 -95 0 c-78 0 -95 3 -95 15 0
11 -11 15 -40 15 l-40 0 0 -55z"/>
</g>
</svg>
