<svg xmlns="http://www.w3.org/2000/svg" xmlns:xlink="http://www.w3.org/1999/xlink" xml:space="preserve" version="1.1" style="shape-rendering:geometricPrecision;text-rendering:geometricPrecision;image-rendering:optimizeQuality;" viewBox="0 0 846.66 1058.325" x="0px" y="0px" fill-rule="evenodd" clip-rule="evenodd"><defs><style type="text/css">
   
    .fil0 {fill:black}
   
  </style></defs><g><path class="fil0" d="M267.28 151.01l312.11 0 0 544.67 -312.11 0 0 -544.67zm-168.62 349.95l144.68 0 0 252.49 -144.68 0 0 -252.49zm504.67 -407.72l144.68 0 0 252.49 -144.68 0 0 -252.49zm-45.04 -71.71l138.02 0 0 56.23 -41.28 0 0 -14.95 -96.74 0 0 -41.28zm138.02 605.68l0 197.93 -138.02 0 0 -41.28 96.74 0 0 -156.65 41.28 0zm-407.93 197.93l-138.02 0 0 -56.21 41.28 0 0 14.93 96.74 0 0 41.28zm-138.02 -605.65l0 -197.96 138.02 0 0 41.28 -96.74 0 0 156.68 -41.28 0z"/></g><text x="0" y="861.66" fill="#000000" font-size="5px" font-weight="bold" font-family="'Helvetica Neue', Helvetica, Arial-Unicode, Arial, Sans-serif">Created by zainul arifin</text><text x="0" y="866.66" fill="#000000" font-size="5px" font-weight="bold" font-family="'Helvetica Neue', Helvetica, Arial-Unicode, Arial, Sans-serif">from the Noun Project</text></svg>