<?xml version="1.0" standalone="no"?>
<!DOCTYPE svg PUBLIC "-//W3C//DTD SVG 20010904//EN"
 "http://www.w3.org/TR/2001/REC-SVG-20010904/DTD/svg10.dtd">
<svg version="1.0" xmlns="http://www.w3.org/2000/svg"
 width="662.000000pt" height="554.000000pt" viewBox="0 0 662.000000 554.000000"
 preserveAspectRatio="xMidYMid meet">
<metadata>
Created by potrace 1.16, written by Peter Selinger 2001-2019
</metadata>
<g transform="translate(0.000000,554.000000) scale(0.100000,-0.100000)"
fill="#000000" stroke="none">
<path d="M3063 5057 c-45 -64 -48 -76 -9 -33 22 24 40 36 45 30 13 -14 1721
-3449 1721 -3461 0 -5 -44 -26 -97 -46 -736 -266 -1836 -663 -2203 -794 -435
-155 -534 -195 -453 -180 45 9 531 177 1293 449 355 126 796 283 980 348 397
140 532 189 538 195 3 3 -751 1508 -833 1660 -18 33 -214 420 -435 860 -222
440 -429 848 -460 907 l-57 108 -30 -43z"/>
<path d="M2996 4915 c-101 -119 -141 -174 -132 -182 3 -4 8 -4 9 -2 10 11 201
235 208 243 10 12 -20 73 974 -1969 145 -297 351 -720 458 -940 107 -220 192
-403 189 -407 -4 -4 -220 -86 -481 -183 -261 -97 -699 -262 -975 -367 -276
-104 -681 -257 -901 -340 -220 -82 -406 -153 -414 -157 -22 -13 2 -20 40 -12
37 9 452 160 1146 417 247 91 702 260 1013 374 657 243 630 232 630 241 0 11
-1648 3352 -1664 3375 -9 12 -28 -6 -100 -91z"/>
<path d="M3293 4758 c63 -123 251 -491 417 -818 167 -327 416 -818 555 -1090
548 -1075 667 -1311 662 -1316 -2 -3 -204 -74 -448 -158 -244 -85 -595 -207
-779 -271 -184 -64 -564 -196 -845 -292 -771 -265 -724 -248 -690 -251 29 -3
216 60 2173 725 411 139 642 223 642 231 0 7 -67 142 -149 300 -306 591 -626
1211 -841 1632 -122 239 -230 449 -240 465 -10 17 -115 221 -235 455 -248 485
-315 610 -327 610 -5 0 43 -100 105 -222z"/>
<path d="M2925 4754 c-163 -191 -225 -270 -225 -286 0 -17 17 1 200 216 96
113 178 205 181 206 3 0 26 -44 51 -97 59 -125 256 -541 621 -1308 159 -335
304 -641 322 -680 18 -38 139 -294 269 -568 130 -274 236 -503 234 -508 -2 -6
-172 -77 -378 -158 -206 -81 -600 -237 -875 -345 -275 -109 -726 -286 -1002
-394 -277 -108 -503 -201 -503 -206 0 -5 15 -6 33 -3 35 5 490 176 1032 387
187 73 493 191 680 262 671 255 1067 412 1071 423 3 7 -106 241 -242 521 -135
280 -295 610 -354 734 -59 124 -204 425 -322 670 -118 245 -308 640 -423 878
-114 237 -211 432 -214 432 -3 0 -73 -79 -156 -176z"/>
<path d="M2820 4558 c-240 -276 -318 -374 -306 -386 3 -3 7 -3 9 -1 21 27 542
615 546 616 3 2 31 -52 63 -120 226 -489 404 -875 653 -1417 158 -344 362
-785 453 -980 225 -485 218 -470 203 -480 -7 -4 -225 -96 -485 -203 -1974
-821 -2261 -942 -2235 -945 15 -2 226 78 530 201 1337 541 2262 917 2267 922
2 2 -87 196 -198 432 -112 235 -228 484 -260 553 -32 69 -161 346 -288 615
-126 270 -304 650 -395 845 -246 527 -295 630 -304 630 -4 -1 -118 -127 -253
-282z"/>
<path d="M2998 4649 c-95 -107 -482 -540 -569 -639 -58 -66 -108 -140 -95
-140 6 0 442 480 606 667 63 73 119 131 123 130 8 -2 89 -179 324 -707 74
-168 244 -548 378 -845 395 -881 550 -1230 550 -1238 0 -9 -111 -58 -815 -364
-223 -97 -686 -298 -1030 -448 -344 -150 -685 -299 -757 -330 -130 -56 -167
-83 -100 -72 36 6 303 116 957 395 245 105 607 258 805 342 684 289 999 424
1013 436 2 1 -52 125 -121 276 -112 244 -336 739 -962 2118 -108 239 -205 450
-214 469 l-18 33 -75 -83z"/>
<path d="M3360 4728 c0 -7 135 -268 420 -813 92 -176 209 -401 260 -500 51
-99 170 -328 265 -510 95 -181 214 -411 265 -510 51 -99 178 -343 281 -542
104 -199 189 -365 189 -370 0 -5 -627 -218 -1392 -472 -766 -255 -1395 -465
-1397 -467 -26 -24 75 4 442 124 237 77 655 213 927 301 1272 412 1465 478
1464 495 -2 15 -202 399 -724 1391 -130 248 -270 513 -310 590 -40 77 -157
300 -260 495 -103 195 -236 447 -295 560 -93 180 -135 250 -135 228z"/>
<path d="M2968 4508 c-806 -887 -860 -949 -845 -964 6 -6 362 379 836 904 46
51 87 89 91 85 9 -9 90 -195 442 -1008 515 -1192 670 -1556 665 -1568 -5 -12
-831 -394 -2354 -1089 -194 -89 -353 -165 -353 -170 0 -4 13 -8 28 -8 30 0 57
12 877 380 292 131 717 321 945 423 778 347 915 409 926 418 12 10 0 39 -431
1019 -117 267 -271 620 -343 785 -203 467 -382 869 -391 878 -4 4 -46 -34 -93
-85z"/>
<path d="M3520 4496 c0 -8 196 -379 800 -1516 136 -256 294 -553 350 -660 57
-107 186 -350 287 -539 101 -189 182 -348 181 -353 -2 -5 -109 -43 -238 -84
-129 -42 -462 -149 -740 -239 -454 -147 -1517 -487 -1727 -553 -46 -14 -83
-29 -83 -34 0 -14 24 -9 186 43 87 28 411 129 719 225 308 97 821 258 1140
359 319 101 626 197 683 215 56 17 102 35 102 40 0 4 -52 106 -116 226 -64
121 -212 399 -329 619 -116 220 -296 558 -400 750 -103 193 -209 391 -235 440
-26 50 -144 270 -263 490 -118 220 -231 432 -250 470 -37 72 -66 116 -67 101z"/>
<path d="M2550 3939 c-272 -292 -517 -557 -543 -588 -48 -56 -93 -129 -84
-138 5 -4 402 412 902 945 115 122 212 222 215 222 6 0 24 -42 405 -965 139
-335 322 -780 409 -987 86 -208 156 -382 156 -386 0 -5 -150 -81 -332 -170
-1019 -493 -2351 -1142 -2357 -1147 -2 -3 3 -7 11 -10 9 -4 49 9 89 28 580
274 1172 551 1386 651 415 192 1267 596 1276 605 9 9 1 31 -345 846 -510 1204
-640 1509 -666 1567 l-27 59 -495 -532z"/>
<path d="M2848 4108 c-96 -101 -380 -398 -631 -661 -327 -341 -464 -492 -483
-528 -14 -28 -24 -53 -22 -54 3 -4 1140 1158 1256 1282 28 31 54 54 56 52 6
-5 810 -2024 819 -2054 6 -18 -23 -35 -236 -144 -133 -68 -458 -235 -722 -371
-621 -320 -1655 -847 -1678 -856 -9 -3 -17 -13 -17 -21 0 -12 8 -15 38 -11 31
5 2670 1314 2695 1338 5 4 -77 218 -182 476 -104 258 -259 640 -344 849 -245
605 -362 885 -368 885 -4 0 -85 -82 -181 -182z"/>
<path d="M3720 4206 c0 -4 26 -55 59 -114 32 -59 144 -267 249 -462 104 -195
281 -526 394 -735 543 -1007 807 -1501 810 -1513 2 -9 -43 -28 -142 -58 -80
-25 -440 -137 -800 -249 -499 -155 -1663 -513 -1824 -562 -17 -5 -18 -6 -3
-15 12 -6 102 17 309 81 161 49 475 144 698 211 223 67 632 191 910 275 278
84 591 179 695 210 105 32 194 61 199 65 8 8 -178 364 -449 855 -156 283 -546
1004 -758 1400 -285 534 -347 643 -347 611z"/>
<path d="M2287 3362 c-542 -548 -740 -755 -773 -806 -24 -38 -42 -71 -39 -74
2 -2 346 334 763 748 418 414 763 753 768 754 11 1 80 -180 589 -1542 l83
-222 -42 -24 c-22 -13 -264 -145 -536 -294 -272 -148 -704 -384 -960 -524
-256 -140 -586 -321 -735 -402 -380 -208 -361 -197 -341 -208 9 -5 26 -6 39
-2 12 3 227 116 477 249 250 133 552 293 670 355 118 62 314 166 435 230 121
65 371 198 555 295 184 98 377 200 428 227 50 27 92 55 92 62 0 25 -730 1916
-739 1915 -4 0 -334 -332 -734 -737z"/>
<path d="M3900 3949 c0 -3 101 -190 223 -415 503 -921 1116 -2044 1157 -2121
25 -45 41 -85 38 -89 -6 -6 -687 -210 -2073 -623 -691 -206 -707 -210 -700
-220 5 -9 162 34 515 142 118 36 445 132 725 212 281 80 659 190 840 245 182
54 420 124 530 155 110 32 204 61 208 65 5 4 -25 68 -66 141 -41 74 -215 390
-387 704 -172 314 -372 678 -445 810 -72 132 -218 398 -324 590 -166 302 -241
428 -241 404z"/>
<path d="M2764 3647 c-127 -122 -462 -445 -745 -717 -283 -272 -554 -533 -602
-580 -57 -55 -106 -113 -137 -165 -27 -44 -46 -82 -44 -84 2 -3 28 18 57 46
88 84 1134 1063 1664 1557 18 16 35 27 38 25 6 -6 264 -726 405 -1127 50 -144
90 -267 88 -273 -2 -6 -150 -96 -328 -201 -179 -105 -530 -311 -780 -458 -250
-147 -683 -401 -962 -565 -279 -163 -505 -301 -502 -306 18 -29 82 2 541 264
974 556 1238 707 1668 949 242 137 446 255 452 261 13 13 -69 245 -427 1212
-67 182 -127 342 -132 358 -6 15 -13 27 -16 27 -4 -1 -111 -101 -238 -223z"/>
<path d="M4120 3617 c0 -3 59 -110 131 -238 128 -228 748 -1344 1023 -1841 75
-136 136 -251 136 -256 0 -9 -741 -227 -2005 -588 -418 -119 -762 -219 -764
-221 -2 -1 -1 -6 2 -9 4 -4 33 1 64 10 32 9 330 93 663 187 1393 393 2084 589
2086 592 2 1 -65 124 -148 272 -1152 2064 -1159 2079 -1179 2091 -5 3 -9 3 -9
1z"/>
<path d="M2894 3508 c-159 -146 -959 -872 -1319 -1197 -476 -430 -496 -450
-557 -549 -27 -46 -48 -85 -47 -87 2 -2 451 388 997 867 547 478 995 868 996
866 2 -1 74 -217 160 -478 87 -261 160 -480 162 -486 6 -13 -13 -25 -1431
-918 -821 -517 -1094 -692 -1095 -698 0 -5 17 -8 38 -8 32 0 103 40 452 253
465 283 888 540 1501 912 446 271 607 371 626 389 9 8 -7 65 -69 241 -44 127
-136 394 -205 595 -68 200 -125 366 -127 367 -2 2 -39 -29 -82 -69z"/>
<path d="M4320 3339 c0 -6 158 -289 550 -984 108 -192 276 -492 373 -665 96
-173 193 -346 215 -385 22 -38 37 -73 34 -76 -8 -7 -870 -249 -2027 -570 -401
-111 -732 -203 -734 -205 -24 -20 68 1 426 100 230 63 652 178 938 255 286 77
700 190 920 251 220 61 426 118 458 127 31 9 57 19 57 23 0 5 -67 127 -149
272 -82 144 -218 387 -303 538 -536 951 -758 1338 -758 1319z"/>
<path d="M2748 3059 c-107 -90 -361 -303 -564 -474 -203 -170 -535 -449 -739
-619 -582 -487 -610 -511 -647 -568 -50 -78 -90 -148 -83 -148 6 0 1022 809
1893 1508 167 134 310 246 317 248 7 3 16 -3 19 -13 2 -10 32 -109 66 -221 34
-111 60 -209 58 -217 -2 -8 -176 -132 -388 -276 -1759 -1195 -2070 -1408
-2070 -1420 0 -5 15 -9 33 -9 33 0 83 32 1237 788 1318 864 1305 855 1297 870
-3 4 -53 160 -112 347 -59 187 -110 346 -114 354 -6 9 -61 -32 -203 -150z"/>
<path d="M4662 2805 c13 -25 580 -1023 739 -1300 98 -170 175 -313 171 -316
-9 -9 -531 -152 -1377 -379 -934 -250 -1337 -359 -1359 -369 -11 -4 -16 -10
-10 -13 5 -3 158 35 339 84 182 49 627 167 990 263 363 96 837 221 1054 279
216 59 395 106 397 106 2 0 4 6 4 14 0 25 -910 1601 -942 1631 -7 7 -9 7 -6 0z"/>
<path d="M2064 2132 c-1672 -1256 -1523 -1140 -1563 -1212 -49 -87 0 -60 344
190 88 64 252 181 365 260 113 79 275 194 360 255 133 96 837 595 1258 892 72
52 132 99 132 105 0 14 -40 148 -44 148 -1 0 -385 -287 -852 -638z"/>
<path d="M4858 2538 c11 -18 139 -240 284 -493 146 -253 322 -558 391 -678 70
-120 127 -222 127 -226 0 -5 -17 -13 -37 -18 -120 -32 -1228 -320 -1618 -421
-867 -225 -1095 -286 -1095 -295 0 -5 6 -7 13 -4 11 4 813 211 2162 557 324
84 593 154 597 156 14 9 9 22 -73 166 -285 500 -753 1288 -766 1288 -2 0 4
-15 15 -32z"/>
<path d="M5123 2150 c39 -74 179 -317 515 -890 50 -85 88 -157 84 -161 -4 -3
-457 -119 -1007 -258 -1506 -379 -1729 -437 -1733 -449 -2 -7 2 -12 10 -12 7
0 306 74 663 165 358 91 814 206 1015 255 926 229 1091 273 1085 288 -3 8 -99
175 -214 371 -114 196 -256 439 -315 541 -116 201 -175 286 -103 150z"/>
<path d="M5362 1818 c4 -8 98 -172 211 -364 112 -192 209 -359 215 -371 12
-21 6 -23 -486 -143 -1058 -259 -2217 -552 -2227 -562 -7 -8 -5 -9 5 -6 8 3
348 87 755 187 407 99 1021 250 1365 334 512 125 625 156 624 169 -2 20 -439
754 -456 764 -7 5 -9 2 -6 -8z"/>
<path d="M5650 1409 c0 -4 49 -91 109 -195 60 -104 108 -190 106 -192 -4 -5
-119 -32 -820 -197 -1062 -250 -1906 -456 -1889 -462 6 -2 470 104 1030 236
560 132 1174 276 1363 321 190 44 346 82 347 83 2 2 -41 77 -94 167 -97 163
-152 250 -152 239z"/>
</g>
</svg>
