<svg xmlns="http://www.w3.org/2000/svg" xmlns:xlink="http://www.w3.org/1999/xlink" version="1.1" x="0px" y="0px" viewBox="0 0 100 125" enable-background="new 0 0 100 100" xml:space="preserve"><path d="M44.783,19.518L5,67.033l15.383,13.449L95,71.982L44.783,19.518z M64.392,65.044l-7.251-1.506l-1.406-5.072l3.979-4.149  l5.482,6.043L64.392,65.044z M65.828,61.054l4.793,5.284l-5.504-1.144L65.828,61.054z M43.445,64.301l-2.706-6.549l3.092-3.549  l3.758,4.174l-1.586,5.768L43.445,64.301z M45.797,64.899l-0.841,3.059l-1.212-2.933L45.797,64.899z M44.321,53.641L51,45.974  L47.823,57.53L44.321,53.641z M43.822,53.087l-6.638-7.372h13.06L43.822,53.087z M43.332,53.649l-2.909,3.339l-4.657-11.273h0.421  L43.332,53.649z M35.461,44.974l-0.052-0.125l0.112,0.125H35.461z M35.342,44.775l-0.066,0.027l0.028-0.07L35.342,44.775z   M34.904,45.715h0.062l4.915,11.897l-2.287,2.626l-5.917-6.611L34.904,45.715z M31.127,53.013l-1.605-1.793l4.332-4.891  L31.127,53.013z M37.103,60.799l-3.398,3.9l-3.572-7.293l1.232-3.019L37.103,60.799z M37.6,61.355l2.803,3.132l-5.842,0.357  L37.6,61.355z M38.09,60.793l2.106-2.417l2.468,5.973l-1.319,0.081L38.09,60.793z M42.962,65.072l0.894,2.164l-1.883-2.104  L42.962,65.072z M46.578,64.851l2.133-0.13l-2.94,3.065L46.578,64.851z M46.785,64.097l1.393-5.067l2.901,3.221l-1.614,1.682  L46.785,64.097z M48.411,58.183l3.226-11.735l3.273,11.809l-3.318,3.459L48.411,58.183z M52.329,46.174l6.887,7.592l-3.711,3.869  L52.329,46.174z M52.88,45.68l14.457-0.382l-7.608,7.933L52.88,45.68z M50.889,44.974H36.517l-0.386-0.428l14.837,0.336  L50.889,44.974z M29.025,50.664l-4.336-4.845l8.707-0.09L29.025,50.664z M28.531,51.222l-0.919,1.037L25.379,47.7L28.531,51.222z   M29.028,51.777l1.788,1.998l-1.119,2.742l-1.733-3.539L29.028,51.777z M29.323,57.435l-3.233,7.926l-9.612,0.587l10.956-12.37  L29.323,57.435z M29.759,58.325l3.239,6.614l-6.089,0.372L29.759,58.325z M41.032,65.189l2.799,3.128l-8.493-2.78L41.032,65.189z   M49.8,64.654l3.263-0.199l2.959,3.287l-9.9,0.748L49.8,64.654z M50.555,63.867l1.021-1.064l0.855,0.95L50.555,63.867z   M52.089,62.268l3.051-3.181l1.227,4.426l-2.992,0.183L52.089,62.268z M60.228,53.78l7.43-7.748l-2.303,13.401L60.228,53.78z   M52.224,44.957l-0.042-0.047l0.972,0.022L52.224,44.957z M35.685,43.799l9.062-22.213l6.252,22.559L35.685,43.799z M34.057,44.982  l-3.043,0.032l3.354-0.383L34.057,44.982z M23.906,46.375l3.176,6.484l-11.65,13.153l-1.298,0.079l9.589-19.498L23.906,46.375z   M14.738,66.795l-2.137,2.412l1.157-2.353L14.738,66.795z M15.784,66.731l9.996-0.61l-1.644,4.029L11.94,71.071L15.784,66.731z   M26.6,66.071l6.833-0.417l0.07,0.061l9.252,3.029l-17.795,1.344L26.6,66.071z M56.648,68.437l5.205,5.781l-15.322-5.016  L56.648,68.437z M57.58,68.367l6.322-0.478l-1.082,6.297L57.58,68.367z M56.954,67.671l-2.948-3.274l2.811-0.172l7.449,1.548  l-0.234,1.363L56.954,67.671z M64.991,65.924l4.025,0.836l-4.223,0.319L64.991,65.924z M65.987,60.129l2.223-12.938l2.894,18.579  L65.987,60.129z M51.771,44.162l-6.069-21.9l21.291,22.243L51.771,44.162z M34.873,43.831l-9.769,1.114L43.27,23.247L34.873,43.831z   M13.284,66.143l-6.249,0.382l14.688-17.544L13.284,66.143z M12.909,66.907l-1.858,3.778l-3.918-3.426L12.909,66.907z   M23.823,70.917l-3.288,8.06l-8.225-7.191L23.823,70.917z M24.648,70.854l19.951-1.507l16.167,5.293l-39.498,4.5L24.648,70.854z   M64.663,67.832l6.974-0.527l18.952,3.938l-27.041,3.081L64.663,67.832z M71.984,66.621L68.84,46.436l23.336,24.38L71.984,66.621z"/><text x="0" y="115" fill="#000000" font-size="5px" font-weight="bold" font-family="'Helvetica Neue', Helvetica, Arial-Unicode, Arial, Sans-serif">Created by emilegraphics</text><text x="0" y="120" fill="#000000" font-size="5px" font-weight="bold" font-family="'Helvetica Neue', Helvetica, Arial-Unicode, Arial, Sans-serif">from the Noun Project</text></svg>